<!-- icon666.com - MILLIONS OF FREE VECTOR ICONS --><svg id="Capa_1" enable-background="new 0 0 512 512" viewBox="0 0 512 512" xmlns="http://www.w3.org/2000/svg" xmlns:xlink="http://www.w3.org/1999/xlink"><linearGradient id="SVGID_1_" gradientUnits="userSpaceOnUse" x1="256" x2="256" y1="512" y2="60"><stop offset="0" stop-color="#ffc2cc"></stop><stop offset="1" stop-color="#fff2f4"></stop></linearGradient><linearGradient id="SVGID_2_" gradientUnits="userSpaceOnUse" x1="256" x2="256" y1="482" y2="0"><stop offset="0" stop-color="#fd3a84"></stop><stop offset="1" stop-color="#ffa68d"></stop></linearGradient><g><g><g><path d="m437 407c16.816 0 30-13.184 30-30s-13.184-30-30-30-30 13.184-30 30 13.184 30 30 30zm-302-15h61c8.291 0 15-6.709 15-15s-6.709-15-15-15h-61c-8.291 0-15 6.709-15 15s6.709 15 15 15zm242-30h-61c-8.291 0-15 6.709-15 15s6.709 15 15 15h61c8.291 0 15-6.709 15-15s-6.709-15-15-15zm-241-90h90l15-7.5v52.5c0 8.291 6.709 15 15 15s15-6.709 15-15v-52.5l15 7.5h90c8.401 0 15-6.601 15-15v-182c0-8.401-6.599-15-15-15s-15 6.599-15 15c0 8.399-6.599 15-15 15s-15-6.601-15-15c0-8.401-6.599-15-15-15s-15 6.599-15 15c0 8.399-6.599 15-15 15s-15-6.601-15-15c0-8.401-6.599-15-15-15s-15 6.599-15 15c0 8.399-6.599 15-15 15s-15-6.601-15-15c0-8.401-6.599-15-15-15s-15 6.599-15 15c0 8.399-6.599 15-15 15s-15-6.601-15-15c0-8.401-6.599-15-15-15s-15 6.599-15 15v182c0 8.399 6.599 15 15 15zm361 210h-33.9l-26.1-30-25.8 30h-34.2c-8.401 0-15 6.599-15 15 0 8.399 6.599 15 15 15h120c8.401 0 15-6.601 15-15 0-8.401-6.599-15-15-15zm-271-105c0 16.816 13.184 30 30 30s30-13.184 30-30-13.184-30-30-30-30 13.184-30 30zm90 105h-33.9l-26.1-30-25.8 30h-34.2c-8.401 0-15 6.599-15 15 0 8.399 6.599 15 15 15h120c8.401 0 15-6.601 15-15 0-8.401-6.599-15-15-15zm-241-75c16.816 0 30-13.184 30-30s-13.184-30-30-30-30 13.184-30 30 13.184 30 30 30zm60 75h-33.9l-26.1-30-25.8 30h-34.2c-8.401 0-15 6.599-15 15 0 8.399 6.599 15 15 15h120c8.401 0 15-6.601 15-15 0-8.401-6.599-15-15-15z" fill="url(#SVGID_1_)"></path></g></g><g><g><path d="m437 302c-41.4 0-75 33.6-75 75 0 13.2 3.6 26.1 9.901 37.5l39.3 67.5h51.899l39-67.5c6.3-11.4 9.9-24.3 9.9-37.5 0-41.4-33.6-75-75-75zm0 90c-8.401 0-15-6.601-15-15 0-8.401 6.599-15 15-15s15 6.599 15 15c0 8.399-6.599 15-15 15zm-151-210c0-8.284-6.716-15-15-15h-30c-8.284 0-15 6.716-15 15v90h60zm105-107v-30c0-24.814-20.186-45-45-45h-180c-24.814 0-45 20.186-45 45v30c0 24.814 20.186 45 45 45 11.514 0 22.031-4.351 30-11.484 15.938 14.268 44.062 14.268 60 0 15.938 14.268 44.062 14.268 60 0 7.969 7.134 18.486 11.484 30 11.484 24.814 0 45-20.186 45-45zm-135 227c-41.4 0-75 33.6-75 75 0 13.2 3.6 26.1 9.901 37.5l39.3 67.5h51.899l39-67.5c6.3-11.4 9.9-24.3 9.9-37.5 0-41.4-33.6-75-75-75zm0 90c-8.401 0-15-6.601-15-15 0-8.401 6.599-15 15-15s15 6.599 15 15c0 8.399-6.599 15-15 15zm-181-90c-41.4 0-75 33.6-75 75 0 13.2 3.6 26.1 9.901 37.5l39.299 67.5h51.9l39-67.5c6.3-11.4 9.9-24.3 9.9-37.5 0-41.4-33.6-75-75-75zm0 90c-8.401 0-15-6.601-15-15 0-8.401 6.599-15 15-15s15 6.599 15 15c0 8.399-6.599 15-15 15z" fill="url(#SVGID_2_)"></path></g></g></g></svg>