<!-- icon666.com - MILLIONS OF FREE VECTOR ICONS --><svg id="Solid" viewBox="0 0 64 64" xmlns="http://www.w3.org/2000/svg"><path d="m61 38h-4v-11c0-3.86-3.141-7-7-7h-1v-.264c1.811-1.267 3-3.364 3-5.736v-5c0-3.86-3.141-7-7-7h-6c-.266 0-.52.105-.707.293-2.061 2.06-2.296 5.371-.547 7.701l.254.338v3.668c0 2.372 1.189 4.47 3 5.736v.264h-1c-3.859 0-7 3.14-7 7v11h-7.101c-.465-2.279-2.484-4-4.899-4h-1v-2h5c1.654 0 3-1.346 3-3v-12c0-1.654-1.346-3-3-3h-18c-1.654 0-3 1.346-3 3v12c0 1.654 1.346 3 3 3h5v2h-1c-2.414 0-4.434 1.721-4.899 4h-3.101c-.553 0-1 .448-1 1v4c0 .552.447 1 1 1h1v17c0 .552.447 1 1 1h54c.553 0 1-.448 1-1v-17h1c.553 0 1-.448 1-1v-4c0-.552-.447-1-1-1zm-21-24v-3.096c1.365-.265 2.552-1.066 3.312-2.23 1.813 1.492 4.105 2.326 6.477 2.326h.211v3c0 2.757-2.243 5-5 5s-5-2.243-5-5zm6.839 6.747-1.839 1.839-1.839-1.839c.587.16 1.202.253 1.839.253s1.252-.093 1.839-.253zm-11.839 6.253c0-2.757 2.243-5 5-5h1.586l2.707 2.707c.195.195.451.293.707.293s.512-.098.707-.293l2.707-2.707h1.586c2.757 0 5 2.243 5 5v11h-2v-8c0-.552-.447-1-1-1s-1 .448-1 1v8h-12v-8c0-.552-.447-1-1-1s-1 .448-1 1v8h-2zm-21-1c0-1.103.897-2 2-2s2 .897 2 2v8h-4zm6 27c0 .552-.448 1-1 1h-2v2c0 .552-.448 1-1 1h-2c-.552 0-1-.448-1-1v-2h-2c-.552 0-1-.448-1-1v-2c0-.552.448-1 1-1h2v-2c0-.552.448-1 1-1h2c.552 0 1 .448 1 1v2h2c.552 0 1 .448 1 1zm16 4h-8c-.553 0-1-.448-1-1s.447-1 1-1h8c.553 0 1 .448 1 1s-.447 1-1 1zm4-5c0 .552-.447 1-1 1h-14c-.553 0-1-.448-1-1v-4c0-.552.447-1 1-1h14c.553 0 1 .448 1 1zm12.781 3.875c.345.431.274 1.061-.156 1.405-.185.148-.405.22-.624.22-.294 0-.584-.128-.782-.375l-.635-.794-.877.877c-.195.194-.451.292-.707.292s-.512-.098-.707-.293c-.391-.391-.391-1.023 0-1.414l1.034-1.034-1.808-2.259h-.519v2c0 .552-.447 1-1 1s-1-.448-1-1v-7c0-.552.447-1 1-1h2c1.654 0 3 1.346 3 3 0 1.036-.528 1.95-1.328 2.489l1.078 1.347.543-.543c.391-.391 1.023-.391 1.414 0s.391 1.023 0 1.414l-.7.7zm7.219-13.875h-56v-2h56z" fill="#000000" style="fill: rgb(255, 255, 255);"></path><path d="m48 48.5h-1v2h1c.552 0 1-.449 1-1s-.448-1-1-1z" fill="#000000" style="fill: rgb(255, 255, 255);"></path><circle cx="45" cy="28" r="1" fill="#000000" style="fill: rgb(255, 255, 255);"></circle><circle cx="43" cy="13" r="1" fill="#000000" style="fill: rgb(255, 255, 255);"></circle><circle cx="47" cy="13" r="1" fill="#000000" style="fill: rgb(255, 255, 255);"></circle><circle cx="45" cy="32" r="1" fill="#000000" style="fill: rgb(255, 255, 255);"></circle><circle cx="45" cy="36" r="1" fill="#000000" style="fill: rgb(255, 255, 255);"></circle></svg>