<!-- icon666.com - MILLIONS OF FREE VECTOR ICONS --><svg id="Outline" viewBox="0 0 64 64" xmlns="http://www.w3.org/2000/svg"><g><path d="m20 49h-2v-2c0-.552-.447-1-1-1h-4c-.553 0-1 .448-1 1v2h-2c-.553 0-1 .448-1 1v4c0 .552.447 1 1 1h2v2c0 .552.447 1 1 1h4c.553 0 1-.448 1-1v-2h2c.553 0 1-.448 1-1v-4c0-.552-.447-1-1-1zm-1 4h-2c-.553 0-1 .448-1 1v2h-2v-2c0-.552-.447-1-1-1h-2v-2h2c.553 0 1-.448 1-1v-2h2v2c0 .552.447 1 1 1h2z" fill="#000000" style="fill: rgb(255, 255, 255);"></path><path d="m52.707 52.793c-.391-.391-1.023-.391-1.414 0l-.543.543-1.078-1.347c.8-.539 1.328-1.453 1.328-2.489 0-1.654-1.346-3-3-3h-2c-.553 0-1 .448-1 1v7c0 .552.447 1 1 1s1-.448 1-1v-2h.519l1.807 2.259-1.034 1.034c-.391.391-.391 1.023 0 1.414.196.195.452.293.708.293s.512-.098.707-.293l.877-.877.635.794c.198.247.488.375.782.375.219 0 .439-.072.624-.219.431-.345.501-.974.156-1.405l-.775-.968.7-.7c.392-.391.392-1.023.001-1.414zm-5.707-4.293h1c.552 0 1 .449 1 1s-.448 1-1 1h-1z" fill="#000000" style="fill: rgb(255, 255, 255);"></path><path d="m61 38h-4v-11c0-3.202-2.164-5.991-5.262-6.782-.538-.137-1.08.186-1.217.721s.187 1.08.721 1.216c2.213.566 3.758 2.558 3.758 4.845v11h-2v-8c0-.552-.447-1-1-1s-1 .448-1 1v8h-12v-8c0-.552-.447-1-1-1s-1 .448-1 1v8h-2v-11c0-2.757 2.243-5 5-5h1.586l2.707 2.707c.195.195.451.293.707.293s.512-.098.707-.293l3-3c.188-.187.293-.442.293-.707v-1.264c1.811-1.267 3-3.364 3-5.736v-5c0-3.86-3.141-7-7-7h-6c-.266 0-.52.105-.707.293-2.061 2.06-2.296 5.371-.547 7.701l.254.338v3.668c0 2.372 1.189 4.47 3 5.736v.264h-1c-3.859 0-7 3.14-7 7v11h-7.101c-.465-2.279-2.484-4-4.899-4h-1v-2h5c1.654 0 3-1.346 3-3v-12c0-1.654-1.346-3-3-3h-18c-1.654 0-3 1.346-3 3v5c0 .552.447 1 1 1s1-.448 1-1v-5c0-.551.448-1 1-1h18c.552 0 1 .449 1 1v12c0 .551-.448 1-1 1h-5v-4c0-2.206-1.794-4-4-4s-4 1.794-4 4v4h-5c-.552 0-1-.449-1-1v-3c0-.552-.447-1-1-1s-1 .448-1 1v3c0 1.654 1.346 3 3 3h5v2h-1c-2.414 0-4.434 1.721-4.899 4h-3.101c-.553 0-1 .448-1 1v4c0 .552.447 1 1 1h1v17c0 .552.447 1 1 1s1-.448 1-1v-17h19c.553 0 1-.448 1-1s-.447-1-1-1h-21v-2h56v2h-31c-.553 0-1 .448-1 1s.447 1 1 1h29v17c0 .552.447 1 1 1s1-.448 1-1v-17h1c.553 0 1-.448 1-1v-4c0-.552-.447-1-1-1zm-16-15.414-1.839-1.839c.587.16 1.202.253 1.839.253s1.252-.093 1.839-.253zm-5.558-18.586h5.558c2.757 0 5 2.243 5 5h-.211c-2.297 0-4.502-.975-6.05-2.673-.242-.267-.616-.363-.966-.285-.351.08-.637.359-.74.704-.36 1.195-1.359 2.04-2.562 2.217l-.126-.168c-1.074-1.434-1.014-3.429.097-4.795zm.558 10v-3.096c1.365-.265 2.552-1.066 3.312-2.23 1.813 1.492 4.105 2.326 6.477 2.326h.211v3c0 2.757-2.243 5-5 5s-5-2.243-5-5zm-26 12c0-1.103.897-2 2-2s2 .897 2 2v8h-4zm-5.829 12c.413-1.164 1.525-2 2.829-2h10c1.304 0 2.416.836 2.829 2z" fill="#000000" style="fill: rgb(255, 255, 255);"></path><circle cx="45" cy="28" r="1" fill="#000000" style="fill: rgb(255, 255, 255);"></circle><circle cx="43" cy="13" r="1" fill="#000000" style="fill: rgb(255, 255, 255);"></circle><circle cx="47" cy="13" r="1" fill="#000000" style="fill: rgb(255, 255, 255);"></circle><circle cx="45" cy="32" r="1" fill="#000000" style="fill: rgb(255, 255, 255);"></circle><circle cx="45" cy="36" r="1" fill="#000000" style="fill: rgb(255, 255, 255);"></circle><path d="m39 49c.553 0 1-.448 1-1s-.447-1-1-1h-14c-.553 0-1 .448-1 1v4c0 .552.447 1 1 1h14c.553 0 1-.448 1-1s-.447-1-1-1h-13v-2z" fill="#000000" style="fill: rgb(255, 255, 255);"></path><path d="m36 55h-8c-.553 0-1 .448-1 1s.447 1 1 1h8c.553 0 1-.448 1-1s-.447-1-1-1z" fill="#000000" style="fill: rgb(255, 255, 255);"></path></g></svg>