<!-- icon666.com - MILLIONS OF FREE VECTOR ICONS --><svg viewBox="0 0 64 64" xmlns="http://www.w3.org/2000/svg"><g id="Icons"><g><g><path d="m60 20-8-8h-40l-8 8z" fill="#64c8f0"></path></g><g><path d="m44 20-12-12-12 12h-12v20h14.841c-.538-1.226-.841-2.578-.841-4 0-5.514 4.486-10 10-10s10 4.486 10 10c0 1.422-.303 2.774-.841 4h14.841v-20z" fill="#f0f0f0"></path></g><g><path d="m12 12-8 8h4l8-8z" fill="#46aad2"></path></g><g><path d="m32 26c-3.314 0-6-2.686-6-6 0-3.314 2.686-6 6-6 3.314 0 6 2.686 6 6 0 3.314-2.686 6-6 6z" fill="#fa6450"></path></g><g><path d="m8 20h4v20h-4z" fill="#d2d2d2"></path></g><g><circle cx="32" cy="20" fill="#f0f0f0" r="4"></circle></g><g><path d="m32.5 20.5h-2.5v-1h1.5v-1.5h1z" fill="#505050"></path></g><g><path d="m14 24h4v4h-4z" fill="#fab400"></path></g><g><path d="m20 24h4v4h-4z" fill="#fab400"></path></g><g><path d="m40 24h4v4h-4z" fill="#fab400"></path></g><g><path d="m46 24h4v4h-4z" fill="#fab400"></path></g><g><path d="m48 20-16-16-16 16h4l12-12 12 12z" fill="#46aad2"></path></g><g><path d="m12 52h12v8h-12z" fill="#fa6450"></path></g><g><path d="m12 52h2v8h-2z" fill="#dc4632"></path></g><g><path d="m26 52h12v8h-12z" fill="#fab400"></path></g><g><path d="m26 52h2v8h-2z" fill="#dc9600"></path></g><g><path d="m40 52h12v8h-12z" fill="#64c8f0"></path></g><g><path d="m40 52h2v8h-2z" fill="#46aad2"></path></g><g><path d="m33 46v-2h-2v2h-14v6h2v-4h12v4h2v-4h12v4h2v-6z" fill="#505050"></path></g><g><path d="m32 44c-4.418 0-8-3.582-8-8 0-4.418 3.582-8 8-8 4.418 0 8 3.582 8 8 0 4.418-3.582 8-8 8z" fill="#fab400"></path></g><g><g><path d="m26 36c0-4.079 3.055-7.438 7-7.931-.328-.041-.661-.069-1-.069-4.418 0-8 3.582-8 8s3.582 8 8 8c.339 0 .672-.028 1-.069-3.945-.493-7-3.852-7-7.931z" fill="#dc9600"></path></g></g><g><g><path d="m36 36.8v-1.6h-.905c-.076-.293-.191-.569-.341-.823l.64-.64-1.131-1.131-.64.64c-.254-.15-.53-.265-.823-.341v-.905h-1.6v.905c-.293.076-.569.191-.823.341l-.64-.64-1.131 1.131.64.64c-.15.254-.265.53-.341.823h-.905v1.6h.905c.076.293.191.569.341.823l-.64.64 1.131 1.131.64-.64c.254.15.53.265.823.341v.905h1.6v-.905c.293-.076.569-.191.823-.341l.64.64 1.131-1.131-.64-.64c.15-.254.265-.53.341-.823zm-4 .8c-.882 0-1.6-.718-1.6-1.6s.718-1.6 1.6-1.6 1.6.718 1.6 1.6-.718 1.6-1.6 1.6z" fill="#f0f0f0"></path></g></g></g></g></svg>