<!-- icon666.com - MILLIONS OF FREE VECTOR ICONS --><svg viewBox="0 0 512 512" xmlns="http://www.w3.org/2000/svg"><g><g><path d="m340.39 152h123.61v320h-416v-320h123.61" fill="#d8d7da"></path><path d="m340.96 104h147.04v48h-147.61" fill="#787680"></path><path d="m171.04 104h-147.04v48h147.61" fill="#787680"></path><circle cx="256" cy="127" fill="#00d7df" r="88"></circle><path d="m292.77 124.17-19.8 19.8-33.94-33.94 19.8-19.8a20 20 0 0 1 28.28 0l5.66 5.66a20 20 0 0 1 0 28.28z" fill="#d80027"></path><path d="m272.97 143.97-19.8 19.8a20 20 0 0 1 -28.28 0l-5.66-5.66a20 20 0 0 1 0-28.28l19.8-19.8z" fill="#e0e0e2"></path><path d="m168 448h176v24h-176z" fill="#787680"></path><g fill="#96c8ef"><path d="m192 280h128v168h-128z"></path><path d="m80 280h80v80h-80z"></path><path d="m352 280h80v80h-80z"></path></g></g><g><path d="m496 464h-24v-304h16a8 8 0 0 0 8-8v-48a8 8 0 0 0 -8-8h-141.14a96 96 0 0 0 -181.72 0h-141.14a8 8 0 0 0 -8 8v48a8 8 0 0 0 8 8h16v304h-24a8 8 0 0 0 0 16h480a8 8 0 0 0 0-16zm-145.17-352h129.17v32h-129.51a96.585 96.585 0 0 0 .34-32zm-94.83-65a80 80 0 1 1 -80 80 80.093 80.093 0 0 1 80-80zm-224 97v-32h129.17a96.585 96.585 0 0 0 .34 32zm304 320h-160v-8h160zm-136-24v-152h48v152zm64 0v-152h48v152zm192 24h-104v-16a8 8 0 0 0 -8-8h-16v-160a8 8 0 0 0 -8-8h-128a8 8 0 0 0 -8 8v160h-16a8 8 0 0 0 -8 8v16h-104v-304h109.84a96.014 96.014 0 0 0 180.32 0h109.84z"></path><path d="m298.43 90.23-5.66-5.66a28 28 0 0 0 -39.6 0l-39.6 39.6a28 28 0 0 0 0 39.6l5.66 5.66a28 28 0 0 0 39.6 0l39.6-39.6a28 28 0 0 0 0-39.6zm-50.92 67.88a12.011 12.011 0 0 1 -16.97 0l-5.65-5.65a11.987 11.987 0 0 1 0-16.97l14.14-14.15 22.63 22.63zm39.6-39.6-14.14 14.15-22.63-22.63 14.15-14.14a12.011 12.011 0 0 1 16.97 0l5.65 5.65a11.987 11.987 0 0 1 0 16.97z"></path><path d="m160 272h-80a8 8 0 0 0 -8 8v80a8 8 0 0 0 8 8h80a8 8 0 0 0 8-8v-80a8 8 0 0 0 -8-8zm-72 16h24v64h-24zm64 64h-24v-64h24z"></path><path d="m432 272h-80a8 8 0 0 0 -8 8v80a8 8 0 0 0 8 8h80a8 8 0 0 0 8-8v-80a8 8 0 0 0 -8-8zm-72 16h24v64h-24zm64 64h-24v-64h24z"></path></g></g></svg>