<!-- icon666.com - MILLIONS OF FREE VECTOR ICONS --><svg clip-rule="evenodd" fill-rule="evenodd" stroke-linejoin="round" stroke-miterlimit="2" viewBox="0 0 24 24" xmlns="http://www.w3.org/2000/svg"><g id="Icon"><path d="m14.292 21.708c1.39 1.389 3.643 1.389 5.033 0l2.383-2.383c1.389-1.39 1.389-3.643 0-5.033-1.39-1.389-3.643-1.389-5.033 0l-2.383 2.383c-1.389 1.39-1.389 3.643 0 5.033zm1.061-1.061c-.804-.804-.804-2.107 0-2.911 0 0 2.383-2.383 2.383-2.383.804-.804 2.107-.804 2.911 0s.804 2.107 0 2.911c0 0-2.383 2.383-2.383 2.383-.804.804-2.107.804-2.911 0z" fill="#000000" style="fill: rgb(255, 255, 255);"></path><path d="m15.484 16.544 3.972 3.972c.292.293.768.293 1.06 0 .293-.292.293-.768 0-1.06l-3.972-3.972c-.292-.293-.768-.293-1.06 0-.293.292-.293.768 0 1.06z" fill="#000000" style="fill: rgb(255, 255, 255);"></path><path d="m6.25 6.417c0 .966-.784 1.75-1.75 1.75-.916 0-1.668-.705-1.744-1.601l1.661-3.669c.041-.09.13-.147.228-.147h14.71c.098 0 .187.057.228.147l1.734 3.829c.171.377.615.545.992.374s.545-.616.374-.993c0 0-1.19-2.627-1.734-3.829-.283-.626-.907-1.028-1.594-1.028-2.578 0-12.132 0-14.71 0-.687 0-1.311.402-1.594 1.028-.544 1.202-1.734 3.829-1.734 3.829-.044.097-.067.203-.067.31 0 1.793 1.456 3.25 3.25 3.25s3.25-1.457 3.25-3.25c0-.414-.336-.75-.75-.75s-.75.336-.75.75z" fill="#000000" style="fill: rgb(255, 255, 255);"></path><path d="m11.25 6.417c0 .966-.784 1.75-1.75 1.75s-1.75-.784-1.75-1.75c0-.414-.336-.75-.75-.75s-.75.336-.75.75c0 1.793 1.456 3.25 3.25 3.25s3.25-1.457 3.25-3.25c0-.414-.336-.75-.75-.75s-.75.336-.75.75z" fill="#000000" style="fill: rgb(255, 255, 255);"></path><path d="m16.25 6.417c0 .966-.784 1.75-1.75 1.75s-1.75-.784-1.75-1.75c0-.414-.336-.75-.75-.75s-.75.336-.75.75c0 1.793 1.456 3.25 3.25 3.25s3.25-1.457 3.25-3.25c0-.414-.336-.75-.75-.75s-.75.336-.75.75z" fill="#000000" style="fill: rgb(255, 255, 255);"></path><path d="m21.25 6.417c0 .966-.784 1.75-1.75 1.75s-1.75-.784-1.75-1.75c0-.414-.336-.75-.75-.75s-.75.336-.75.75c0 1.793 1.456 3.25 3.25 3.25s3.25-1.457 3.25-3.25c0-.414-.336-.75-.75-.75s-.75.336-.75.75z" fill="#000000" style="fill: rgb(255, 255, 255);"></path><path d="m3.25 9v13c0 .414.336.75.75.75s.75-.336.75-.75v-13c0-.414-.336-.75-.75-.75s-.75.336-.75.75z" fill="#000000" style="fill: rgb(255, 255, 255);"></path><path d="m19.25 9v2c0 .414.336.75.75.75s.75-.336.75-.75v-2c0-.414-.336-.75-.75-.75s-.75.336-.75.75z" fill="#000000" style="fill: rgb(255, 255, 255);"></path><path d="m14.949 11.25h-5.949c-.464 0-.909.184-1.237.513-.329.328-.513.773-.513 1.237v3c0 .966.783 1.75 1.75 1.75h2c.414 0 .75-.336.75-.75s-.336-.75-.75-.75h-2c-.138 0-.25-.112-.25-.25v-3c0-.066.026-.13.073-.177s.111-.073.177-.073h5.949c.414 0 .75-.336.75-.75s-.336-.75-.75-.75z" fill="#000000" style="fill: rgb(255, 255, 255);"></path><path d="m2 22.75h9c.414 0 .75-.336.75-.75s-.336-.75-.75-.75h-9c-.414 0-.75.336-.75.75s.336.75.75.75z" fill="#000000" style="fill: rgb(255, 255, 255);"></path></g></svg>