<!-- icon666.com - MILLIONS OF FREE VECTOR ICONS --><svg clip-rule="evenodd" fill-rule="evenodd" stroke-linejoin="round" stroke-miterlimit="2" viewBox="0 0 24 24" xmlns="http://www.w3.org/2000/svg"><g id="Icon"><path d="m7 8.492c.596.718 1.495 1.175 2.5 1.175s1.904-.457 2.5-1.175c.596.718 1.495 1.175 2.5 1.175s1.904-.457 2.5-1.175c.596.718 1.495 1.175 2.5 1.175 1.787 0 3.239-1.446 3.25-3.23l-.006-.113-.022-.109-.039-.108s-1.19-2.627-1.734-3.829c-.283-.626-.907-1.028-1.594-1.028-2.578 0-12.132 0-14.71 0-.687 0-1.311.402-1.594 1.028-.544 1.202-1.734 3.829-1.734 3.829-.044.097-.067.203-.067.31 0 1.793 1.456 3.25 3.25 3.25 1.005 0 1.904-.457 2.5-1.175z" fill="#000000" style="fill: rgb(0, 0, 0);"></path><path d="m13.959 22.75c-.129-.104-.254-.215-.374-.335-1.262-1.262-1.629-3.079-1.102-4.665h-3.483c-.967 0-1.75-.784-1.75-1.75 0-.871 0-2.129 0-3 0-.966.783-1.75 1.75-1.75h5.959c.96 0 1.74.773 1.75 1.732v.002c1.211-.788 2.715-.942 4.041-.46v-2.044c-.395.121-.815.187-1.25.187-.934 0-1.798-.302-2.5-.814-.702.512-1.566.814-2.5.814s-1.798-.302-2.5-.814c-.702.512-1.566.814-2.5.814s-1.798-.302-2.5-.814c-.702.512-1.566.814-2.5.814-.435 0-.855-.066-1.25-.187v11.52c0 .414.336.75.75.75zm-.633-6.5h-4.326c-.138 0-.25-.112-.25-.25v-3c0-.138.112-.25.25-.25h5.959c.137 0 .249.11.25.247l.014 1.334-1.638 1.637c-.091.091-.177.185-.259.282z" fill="#000000" style="fill: rgb(0, 0, 0);"></path><path d="m2 22.75h9c.414 0 .75-.336.75-.75s-.336-.75-.75-.75h-9c-.414 0-.75.336-.75.75s.336.75.75.75z" fill="#000000" style="fill: rgb(0, 0, 0);"></path><path d="m14.953 16.014-.661.661c-1.389 1.39-1.389 3.643 0 5.033 1.39 1.389 3.643 1.389 5.033 0l.661-.661zm1.061-1.061 5.033 5.033.661-.661c1.389-1.39 1.389-3.643 0-5.033-1.39-1.389-3.643-1.389-5.033 0z" fill="#000000" style="fill: rgb(0, 0, 0);"></path></g></svg>