<!-- icon666.com - MILLIONS OF FREE VECTOR ICONS --><svg id="Icons" viewBox="0 0 60 60" xmlns="http://www.w3.org/2000/svg"><path d="m30 2a27.724 27.724 0 0 0 -17.379 6.044 1 1 0 0 1 -1.621-.784v-2.26a1 1 0 0 0 -2 0v7a1 1 0 0 0 1 1h7a1 1 0 0 0 0-2h-1.98a1 1 0 0 1 -.6-1.8 25.713 25.713 0 0 1 15.58-5.2 26 26 0 1 1 -26 26 1 1 0 0 0 -2 0 28 28 0 1 0 28-28z"></path><path d="m31 25.1v-13.1a.959.959 0 0 0 -.287-.693.977.977 0 0 0 -.713-.307 1 1 0 0 0 -1 1v13.1a5 5 0 0 1 2 0z"></path><circle cx="30" cy="30" r="3"></circle><path d="m41.008 32.772a.9.9 0 0 0 .162.018 1 1 0 0 0 .981-.841.978.978 0 0 0 -.168-.744 1.009 1.009 0 0 0 -.665-.409l-6.34-1.014c0 .074.022.143.022.218a4.953 4.953 0 0 1 -.335 1.756z"></path></svg>