<!-- icon666.com - MILLIONS OF FREE VECTOR ICONS --><svg id="Layer_3" viewBox="0 0 64 64" xmlns="http://www.w3.org/2000/svg" data-name="Layer 3"><path d="m8 63h48a1 1 0 0 0 1-1v-60a1 1 0 0 0 -1-1h-48a1 1 0 0 0 -1 1v60a1 1 0 0 0 1 1zm1-60h46v58h-46z"></path><path d="m11 5h2v10h-2z"></path><path d="m16 9.486 3.152 5.044a1 1 0 0 0 1.848-.53v-9h-2v5.514l-3.152-5.044a1 1 0 0 0 -1.848.53v9h2z"></path><path d="m23.03 14.242a1 1 0 0 0 .97.758h2a1 1 0 0 0 .97-.758l1-4a.984.984 0 0 0 .03-.242v-5h-2v4.877l-.781 3.123h-.438l-.781-3.123v-4.877h-2v5a.984.984 0 0 0 .03.242z"></path><path d="m31 15h3a2 2 0 0 0 2-2v-6a2 2 0 0 0 -2-2h-3a2 2 0 0 0 -2 2v6a2 2 0 0 0 2 2zm0-8h3v6h-3z"></path><path d="m37 5h2v10h-2z"></path><path d="m41 15h5a1 1 0 0 0 1-1v-3h-2v2h-3v-6h3v1h2v-2a1 1 0 0 0 -1-1h-5a1 1 0 0 0 -1 1v8a1 1 0 0 0 1 1z"></path><path d="m48 6v8a1 1 0 0 0 1 1h4v-2h-3v-2h3v-2h-3v-2h3v-2h-4a1 1 0 0 0 -1 1z"></path><path d="m52 17h-40a1 1 0 0 0 -1 1v28a1 1 0 0 0 1 1h40a1 1 0 0 0 1-1v-28a1 1 0 0 0 -1-1zm-1 6h-6v-4h6zm-24-4h6v4h-6zm0 6h6v20h-6zm8 0h8v20h-8zm0-2v-4h8v4zm-22-4h12v26h-12zm32 26v-20h6v20z"></path><path d="m23 26v-1a3 3 0 0 0 -3-3v-1h-2v1a3 3 0 0 0 -3 3v1a3 3 0 0 0 3 3v3a1 1 0 0 1 -1-1v-1h-2v1a3 3 0 0 0 3 3v1h2v-1a3 3 0 0 0 3-3v-1a3 3 0 0 0 -3-3v-3a1 1 0 0 1 1 1v1zm-2 4v1a1 1 0 0 1 -1 1v-3a1 1 0 0 1 1 1zm-3-3a1 1 0 0 1 -1-1v-1a1 1 0 0 1 1-1z"></path><path d="m35 55h18v2h-18z"></path><path d="m39 51h8v2h-8z"></path><path d="m49 51h4v2h-4z"></path></svg>