<!-- icon666.com - MILLIONS OF FREE VECTOR ICONS --><svg id="Layer_3" viewBox="0 0 64 64" xmlns="http://www.w3.org/2000/svg" data-name="Layer 3"><path d="m8 2h48v60h-48z" fill="#c8cded"></path><path d="m50 59a2 2 0 0 0 2-2v-55h-44v57z" fill="#e2e7f6"></path><path d="m12 18h40v28h-40z" fill="#f2f2f2"></path><path d="m49 41v-23h-37v25h35a2 2 0 0 0 2-2z" fill="#fff"></path><path d="m12 18h14v28h-14z" fill="#f0ae42"></path><path d="m12 18h11v25h-11z" fill="#f6b940"></path><path d="m26 18h26v6h-26z" fill="#f9d266"></path><g fill="#d5883e"><path d="m11 5h2v10h-2z"></path><path d="m19 10.514-3.152-5.044a1 1 0 0 0 -1.848.53v9h2v-5.514l3.152 5.044a1 1 0 0 0 1.848-.53v-9h-2z"></path><path d="m26 9.877-.781 3.123h-.438l-.781-3.123v-4.877h-2v5a.984.984 0 0 0 .03.242l1 4a1 1 0 0 0 .97.758h2a1 1 0 0 0 .97-.758l1-4a.984.984 0 0 0 .03-.242v-5h-2z"></path><path d="m34 5h-3a2 2 0 0 0 -2 2v6a2 2 0 0 0 2 2h3a2 2 0 0 0 2-2v-6a2 2 0 0 0 -2-2zm-3 8v-6h3v6z"></path><path d="m37 5h2v10h-2z"></path><path d="m46 5h-5a1 1 0 0 0 -1 1v8a1 1 0 0 0 1 1h5a1 1 0 0 0 1-1v-3h-2v2h-3v-6h3v1h2v-2a1 1 0 0 0 -1-1z"></path><path d="m53 7v-2h-4a1 1 0 0 0 -1 1v8a1 1 0 0 0 1 1h4v-2h-3v-2h3v-2h-3v-2z"></path></g><path d="m23 26v-1a3 3 0 0 0 -3-3v-1h-2v1a3 3 0 0 0 -3 3v1a3 3 0 0 0 3 3v3a1 1 0 0 1 -1-1v-1h-2v1a3 3 0 0 0 3 3v1h2v-1a3 3 0 0 0 3-3v-1a3 3 0 0 0 -3-3v-3a1 1 0 0 1 1 1v1zm-2 4v1a1 1 0 0 1 -1 1v-3a1 1 0 0 1 1 1zm-3-3a1 1 0 0 1 -1-1v-1a1 1 0 0 1 1-1z" fill="#fce797"></path><path d="m52 23h-7v-5h-2v5h-8v-5h-2v5h-7v2h7v21h2v-21h8v21h2v-21h7z" fill="#f0ae42"></path><path d="m35 55h18v2h-18z" fill="#9da1bf"></path><path d="m39 51h8v2h-8z" fill="#9da1bf"></path><path d="m49 51h4v2h-4z" fill="#9da1bf"></path></svg>