<!-- icon666.com - MILLIONS OF FREE VECTOR ICONS --><svg id="Layer_3" viewBox="0 0 64 64" xmlns="http://www.w3.org/2000/svg" data-name="Layer 3"><path d="m18 24a1 1 0 0 0 -1 1v1a1 1 0 0 0 1 1z"></path><path d="m27 25h6v20h-6z"></path><path d="m13 45h12v-26h-12zm2-15h2v1a1 1 0 0 0 1 1v-3a3 3 0 0 1 -3-3v-1a3 3 0 0 1 3-3v-1h2v1a3 3 0 0 1 3 3v1h-2v-1a1 1 0 0 0 -1-1v3a3 3 0 0 1 3 3v1a3 3 0 0 1 -3 3v1h-2v-1a3 3 0 0 1 -3-3z"></path><path d="m31 7h3.001v6h-3.001z"></path><path d="m21 31v-1a1 1 0 0 0 -1-1v3a1 1 0 0 0 1-1z"></path><path d="m27 19h6v4h-6z"></path><path d="m45 19h6v4h-6z"></path><path d="m45 25h6v20h-6z"></path><path d="m35 25h8v20h-8z"></path><path d="m9 3v58h46v-58zm31 3a1 1 0 0 1 1-1h5a1 1 0 0 1 1 1v2h-2v-1h-3v6h3v-2h2v3a1 1 0 0 1 -1 1h-5a1 1 0 0 1 -1-1zm-3-1h2v10h-2zm-8 2a2 2 0 0 1 2-2h3a2 2 0 0 1 2 2v6a2 2 0 0 1 -2 2h-3a2 2 0 0 1 -2-2zm-7-2h2v4.877l.781 3.123h.438l.781-3.123v-4.877h2v5a.984.984 0 0 1 -.03.242l-1 4a1 1 0 0 1 -.97.758h-2a1 1 0 0 1 -.97-.758l-1-4a.984.984 0 0 1 -.03-.242zm-8 1a1 1 0 0 1 1.848-.53l3.152 5.044v-5.514h2v9a1 1 0 0 1 -1.848.53l-3.152-5.044v5.514h-2zm-3-1h2v10h-2zm42 52h-18v-2h18zm-14-4v-2h8v2zm14 0h-4v-2h4zm0-7a1 1 0 0 1 -1 1h-40a1 1 0 0 1 -1-1v-28a1 1 0 0 1 1-1h40a1 1 0 0 1 1 1zm0-39h-3v2h3v2h-3v2h3v2h-4a1 1 0 0 1 -1-1v-8a1 1 0 0 1 1-1h4z"></path><path d="m35 19h8v4h-8z"></path></svg>