<!-- icon666.com - MILLIONS OF FREE VECTOR ICONS --><svg id="Capa_1" enable-background="new 0 0 512 512" viewBox="0 0 512 512" xmlns="http://www.w3.org/2000/svg"><g><path d="m316 386v55h-120c.011-58.52-.031-55.22.04-56h119.92c.03.33.04.66.04 1z" fill="#d5e8fe"></path><path d="m316 386v55h-60v-56h59.96c.03.33.04.66.04 1z" fill="#b5dbff"></path><path d="m336 436h-160c-24.813 0-45 20.187-45 45v16c0 8.284 6.716 15 15 15h220c8.284 0 15-6.716 15-15v-16c0-24.813-20.187-45-45-45z" fill="#edf5ff"></path><path d="m381 481v16c0 8.28-6.72 15-15 15h-110v-76h80c24.81 0 45 20.19 45 45z" fill="#d5e8fe"></path><path d="m0 314.5v60.5c0 8.284 6.716 15 15 15h482c8.284 0 15-6.716 15-15v-60.5l-256-10z" fill="#edf5ff"></path><path d="m512 314.5v60.5c0 8.28-6.72 15-15 15h-241v-85.5z" fill="#d5e8fe"></path><path d="m512 15c0-8.284-6.716-15-15-15h-482c-8.284 0-15 6.716-15 15v299.5h512z" fill="#393d9d"></path><path d="m512 15v299.5h-256v-314.5h241c8.28 0 15 6.72 15 15z" fill="#182084"></path><path d="m30 30h452v252.883h-452z" fill="#4bb9ec"></path><path d="m256 30h226v252.88h-226z" fill="#0095ff"></path><path d="m378 140h-33.839l-23.793-79.311c-4.336-14.454-24.812-14.132-28.82.296l-35.511 127.838-27.035-97.819c-3.639-13.165-21.637-14.98-27.829-2.803l-26.338 51.799h-26.835c-8.284 0-15 6.716-15 15s6.716 15 15 15h36.036c5.645 0 10.812-3.169 13.371-8.201l12.981-25.529 31.154 112.727c4.038 14.611 24.833 14.698 28.911.019l36.102-129.966 12.079 40.262c1.902 6.343 7.742 10.688 14.366 10.688h45c8.284 0 15-6.716 15-15s-6.716-15-15-15z" fill="#ffda2d"></path><path d="m393 155c0 8.28-6.72 15-15 15h-45c-6.62 0-12.46-4.34-14.37-10.69l-12.08-40.26-36.1 129.96c-2.03 7.33-8.24 10.98-14.45 10.98v-71.31l.04.14 35.51-127.83c4-14.43 24.48-14.75 28.82-.3l23.79 79.31h33.84c8.28 0 15 6.72 15 15z" fill="#fdbf00"></path></g></svg>