<!-- icon666.com - MILLIONS OF FREE VECTOR ICONS --><svg id="Capa_1" enable-background="new 0 0 512 512" viewBox="0 0 512 512" xmlns="http://www.w3.org/2000/svg"><g><path d="m0 375c0 8.284 6.716 15 15 15h181v20.5h120v-20.5h181c8.284 0 15-6.716 15-15v-45.5h-512z" fill="#000000" style="fill: rgb(255, 255, 255);"></path><path d="m497 0h-482c-8.284 0-15 6.716-15 15v284.5h512v-284.5c0-8.284-6.716-15-15-15zm-119 165h-45c-6.624 0-12.464-4.345-14.367-10.689l-12.079-40.262-36.102 129.966c-4.055 14.601-24.87 14.602-28.911-.019l-31.153-112.726-12.981 25.529c-2.559 5.032-7.726 8.201-13.371 8.201h-36.036c-8.284 0-15-6.716-15-15s6.716-15 15-15h26.835l26.337-51.799c6.19-12.174 24.189-10.367 27.829 2.803l27.035 97.819 35.511-127.838c4.006-14.424 24.486-14.742 28.82-.296l23.794 79.311h33.839c8.284 0 15 6.716 15 15s-6.716 15-15 15z" fill="#000000" style="fill: rgb(255, 255, 255);"></path><path d="m336 441h-160c-24.813 0-45 20.187-45 45v11c0 8.284 6.716 15 15 15h220c8.284 0 15-6.716 15-15v-11c0-24.813-20.187-45-45-45z" fill="#000000" style="fill: rgb(255, 255, 255);"></path></g></svg>