<!-- icon666.com - MILLIONS OF FREE VECTOR ICONS --><svg viewBox="0 0 512.00001 512" xmlns="http://www.w3.org/2000/svg"><path d="m60.292969 141.675781c-15.351563 0-24.484375-17.199219-15.828125-29.875 46.722656-68.410156 125.75-113.003906 215.128906-111.7773435 140.472656 1.9296875 252.445312 115.5664065 252.40625 256.0507815-.011719 33.890625-6.613281 66.238281-18.589844 95.839843-5.578125 13.78125-18.902344 22.847657-33.769531 22.847657h-121.390625c0-128.730469-104.355469-233.085938-233.085938-233.085938zm0 0" fill="#016a74"></path><path d="m370 120v365.257812c-34.332031 17.105469-73.039062 26.742188-114 26.742188-139.675781 0-253.214844-111.867188-255.9335938-250.890625-.0429687-.367187-.0664062-.734375-.0664062-1.109375v-140c0-5.523438 4.476562-10 10-10h350c.34375 0 .6875.019531 1.023438.050781 2.6875.273438 5.0625 1.613281 6.691406 3.589844.207031.246094.398437.503906.578125.769531.71875 1.0625 1.238281 2.273438 1.503906 3.574219.132813.652344.203125 1.324219.203125 2.015625zm0 0" fill="#ebae56"></path><path d="m369.796875 117.984375c-.265625-1.300781-.785156-2.511719-1.503906-3.574219-.179688-.265625-.371094-.523437-.578125-.769531-1.628906-1.976563-4.003906-3.316406-6.691406-3.589844-.335938-.03125-.679688-.050781-1.023438-.050781h-340v150c0 .375.023438.742188.066406 1.109375 2.65625 135.671875 110.851563 245.460937 245.882813 250.675781 37.28125-1.425781 72.511719-10.816406 104.050781-26.527344v-365.257812c0-.691406-.070312-1.363281-.203125-2.015625zm-184.796875 262.015625c-46.945312 0-85-38.054688-85-85s38.054688-85 85-85 85 38.054688 85 85-38.054688 85-85 85zm0 0" fill="#fbc56d"></path><path d="m255 55v110c0 2.761719-2.238281 5-5 5h-20c-2.761719 0-5-2.238281-5-5v-100c0-2.761719-2.238281-5-5-5h-80c-2.761719 0-5 2.238281-5 5v100c0 2.761719-2.238281 5-5 5h-20c-2.761719 0-5-2.238281-5-5v-110c0-13.808594 11.191406-25 25-25h100c13.808594 0 25 11.191406 25 25zm0 0" fill="#dca050"></path><path d="m125 170h-15c-2.761719 0-5-2.238281-5-5v-110c0-13.808594 11.191406-25 25-25h15c-13.808594 0-25 11.191406-25 25v110c0 2.761719 2.238281 5 5 5zm0 0" fill="#ce9047"></path><path d="m205.375 350h288.8125c-37.472656 94.875-129.988281 162-238.1875 162-32.242188 0-63.085938-5.976562-91.5-16.855469v-124.28125h.304688c9.363281-13.09375 24.472656-20.863281 40.570312-20.863281zm0 0" fill="#d73131"></path><path d="m204.78125 350h289.40625c-37.472656 94.875-129.988281 162-238.1875 162-22.984375 0-45.25-3.046875-66.441406-8.726562v-132.410157h.304687zm0 0" fill="#e84444"></path><path d="m495.089844 347.640625-19.574219-27.375c-20.476563-28.640625-34.132813-61.585937-39.921875-96.316406-.378906-2.277344-2.351562-3.949219-4.664062-3.949219h-185.359376c-2.3125 0-4.285156 1.671875-4.664062 3.949219-5.789062 34.730469-19.441406 67.675781-39.921875 96.316406l-36.484375 51.027344h320.117188c3.875-7.671875 7.371093-15.5625 10.472656-23.652344zm-89.46875-80.363281c0 10.445312-8.464844 18.914062-18.910156 18.914062h-96.921876c-10.445312 0-18.910156-8.46875-18.910156-18.914062 0-10.445313 8.464844-18.910156 18.910156-18.910156h96.921876c10.445312 0 18.910156 8.464843 18.910156 18.910156zm0 0" fill="#fd7d43"></path><path d="m475.515625 320.265625-92.34375 36.207031c-.34375.132813-.707031.203125-1.074219.203125-2.898437 0-4.058594-3.742187-1.664062-5.378906l80.167968-54.867187c4.476563 8.21875 9.445313 16.183593 14.914063 23.835937zm-181.207031 31.046875-60.71875-42.296875c16.304687-25.890625 27.332031-54.796875 32.375-85.066406.378906-2.28125 2.351562-3.949219 4.664062-3.949219h-25.058594c-2.3125 0-4.285156 1.667969-4.664062 3.949219-5.789062 34.730469-19.441406 67.675781-39.921875 96.316406l-36.484375 51.027344h25.058594l30.820312-43.105469 71.027344 28.277344c.347656.140625.714844.210937 1.089844.210937h.128906c2.882812 0 4.050781-3.714843 1.683594-5.363281zm0 0" fill="#fc6930"></path></svg>