<!-- icon666.com - MILLIONS OF FREE VECTOR ICONS --><svg id="Capa_1" enable-background="new 0 0 497 497" viewBox="0 0 497 497" xmlns="http://www.w3.org/2000/svg"><g><path d="m231 222.24v6.76l-1 1-168.415 7.287-60.128-7.271c.21-99.9 63.458-183.041 152.488-214.821l25.087 49.496z" fill="#ff7d91"></path><path d="m461 230-49.968 7.287-177.132-7.287-1.06-2.84 108.064-116.04 52.086-44.11c41.9 41.65 67.87 99.29 68.01 162.99z" fill="#afefa5"></path><path d="m461 230v.5c0 120.318-92.191 219.108-209.785 229.582-6.824.608-13.733-.667-20.715-.667-127.3 0-228.106-100.828-228.106-228.128v-.5l41.616-.787z" fill="#ffe07d"></path><path d="m231 0 5.223 50.649-5.223 171.591-72.77-194.91-4.819-13.665c20.016-7.14 40.775-11.546 62.813-12.952 4.628-.296 9.556-.713 14.276-.713z" fill="#7dc3ee"></path><path d="m44 228.29c0 .57 0 1.14.01 1.71l-25.829 8.181-18.181-8.181c.21-99.9 63.98-184.87 153.01-216.65l6.362 5.001-1.142 8.979c-68.33 40.37-114.23 115.25-114.23 200.96z" fill="#e15f78"></path><path d="m229.62 0c-25.57 5.09-49.62 14.46-71.39 27.33l-5.22-13.98c23.96-8.55 49.74-13.25 76.61-13.35z" fill="#64acdc"></path><path d="m392.99 67.01-160.15 160.15-1.84-4.92v-222.24c63.2.13 120.43 25.7 161.99 67.01z" fill="#d3effd"></path><path d="m233.9 230h-3.9l1-1v-6.76l1.84 4.92z" fill="#b2e5fb"></path><circle cx="224.686" cy="229.13" fill="#f9f8f9" r="145"></circle><g><path d="m328.001 230.017c0-51.426-39.814-93.553-90.299-97.238-2.378-.174-3.896.142-6.318.142-53.848 0-96.585 43.353-96.585 97.201s42.753 96.874 96.601 96.874c2.15 0 3.385.452 5.501.315 50.864-3.297 91.1-45.597 91.1-97.294z" fill="#ffe07d"></path><path d="m238.501 327.197c-2.64.21-5.31.32-8 .32-53.85 0-97.5-43.65-97.5-97.5s43.65-97.5 97.5-97.5c2.69 0 5.36.11 8 .32-50.11 4.07-89.5 46.02-89.5 97.18 0 51.159 39.39 93.109 89.5 97.18z" fill="#ffd064"></path><path d="m231.293 296.4c-37.22 0-66.707-29.028-66.707-66.248s28.695-67.156 65.915-67.156c2.313 0 4.598-.362 6.852-.134 34.014 3.444 60.648 32.248 60.648 67.155 0 34.942-26.687 63.767-60.749 67.165-2.221.221-3.681-.782-5.959-.782z" fill="#ffd064"></path><path d="m238.501 297.047c-2.62.31-5.29.47-8 .47-37.22 0-67.5-30.28-67.5-67.5s30.28-67.5 67.5-67.5c2.71 0 5.38.16 8 .47-33.46 3.97-59.5 32.52-59.5 67.03s26.04 63.06 59.5 67.03z" fill="#ffc250"></path><g><g><path d="m229.758 257.545c-5.649 0-9.188-.661-14.542-4.159-3.468-2.266-4.442-6.914-2.177-10.381 2.267-3.469 6.914-4.441 10.381-2.177 2.519 1.646 3.125 1.746 6.769 1.715 2.675-.018 3.739-2.107 3.945-3.34.303-1.802-.713-2.423-1.855-2.827-.898-.317-1.758-.605-2.579-.88-4.557-1.528-8.86-2.972-12.223-6.727-3.233-3.611-4.663-9.345-3.643-14.608 1.006-5.195 4.18-9.347 8.937-11.69 8.479-4.178 17.176.049 20.59 2.868 3.194 2.637 3.645 7.364 1.008 10.559-2.613 3.165-7.279 3.637-10.472 1.078-.723-.517-3.132-1.721-4.496-1.05-.521.257-.679.505-.789.875-.223.754-.043 1.682.134 2.058.82.771 3.205 1.571 5.725 2.416.891.299 1.826.613 2.802.958 8.426 2.975 13.109 10.793 11.655 19.456-1.533 9.126-9.371 15.794-18.638 15.855-.181 0-.358.001-.532.001z" fill="#ffe07d"></path></g><g><path d="m230.5 264.542c-4.142 0-7.5-3.358-7.5-7.5v-6.999c0-4.142 3.358-7.5 7.5-7.5s7.5 3.358 7.5 7.5v6.999c0 4.143-3.358 7.5-7.5 7.5z" fill="#ffe07d"></path></g><g><path d="m230.5 215.696c-4.142 0-7.5-3.358-7.5-7.5v-6.153c0-4.142 3.358-7.5 7.5-7.5s7.5 3.358 7.5 7.5v6.153c0 4.142-3.358 7.5-7.5 7.5z" fill="#ffe07d"></path></g></g></g><path d="m473.67 495.543-165.702-.638c-11.046 0-20-8.954-20-20l-.043-164.596c0-8.955 4.96-19.844 13.073-22.393 1.894-.595 3.91-.916 6.001-.916h170c11.046 0 20 8.954 20 20v170c0 2.091-.321 4.107-.916 6.001-2.548 8.114-13.458 12.542-22.413 12.542z" fill="#857e87"></path><path d="m496.08 483c-2.54 8.12-10.12 14-19.08 14h-170c-11.046 0-20-8.954-20-20v-170c0-8.96 5.88-16.54 14-19.08v185.08c0 5.523 4.477 10 10 10z" fill="#6f6571"></path><g><path d="m461 346h-138c-2.761 0-5-2.239-5-5v-18c0-2.761 2.239-5 5-5l8-1h131c2.761 0 5 2.239 5 5v11l-1 8c0 2.761-2.239 5-5 5z" fill="#afefa5"></path><path d="m467 333v9c0 2.761-2.239 5-5 5h-140c-2.761 0-5-2.239-5-5v-20c0-2.761 2.239-5 5-5h9v14c0 1.105.895 2 2 2z" fill="#8ce1a4"></path></g><g fill="#e8e8e8"><path d="m342 407h-20c-2.761 0-5-2.239-5-5v-20c0-2.761 2.239-5 5-5h20c2.761 0 5 2.239 5 5v20c0 2.761-2.239 5-5 5z"></path><path d="m342 467h-20c-2.761 0-5-2.239-5-5v-20c0-2.761 2.239-5 5-5h20c2.761 0 5 2.239 5 5v20c0 2.761-2.239 5-5 5z"></path><path d="m402 407h-20c-2.761 0-5-2.239-5-5v-20c0-2.761 2.239-5 5-5h20c2.761 0 5 2.239 5 5v20c0 2.761-2.239 5-5 5z"></path><path d="m402 467h-20c-2.761 0-5-2.239-5-5v-20c0-2.761 2.239-5 5-5h20c2.761 0 5 2.239 5 5v20c0 2.761-2.239 5-5 5z"></path><path d="m462 467h-20c-2.761 0-5-2.239-5-5v-80c0-2.761 2.239-5 5-5h20c2.761 0 5 2.239 5 5v80c0 2.761-2.239 5-5 5z"></path></g><path d="m252.53 459.96c-7.25.69-14.6 1.04-22.03 1.04-127.3 0-230.5-103.2-230.5-230.5v-.5h44.01c.85 120.26 92.08 218.84 208.52 229.96z" fill="#ffd064"></path></g></svg>