<!-- icon666.com - MILLIONS OF FREE VECTOR ICONS --><svg viewBox="-61 0 512 512" xmlns="http://www.w3.org/2000/svg"><path d="m390 61v240l-30 30h-270l-30-30v-240zm0 0" fill="#7c8388"></path><path d="m390 61v240l-30 30h-135v-270zm0 0" fill="#9facba"></path><path d="m90 91h270v240h-270zm0 0" fill="#64e1dc"></path><path d="m225 91h135v240h-135zm0 0" fill="#009ae4"></path><path d="m60 301h330v211h-330zm0 0" fill="#c5d3dd"></path><path d="m225 301h165v211h-165zm0 0" fill="#9facba"></path><path d="m330 0v241l-30 30h-270l-30-30v-241zm0 0" fill="#ececf1"></path><path d="m330 0v241l-30 30h-135v-271zm0 0" fill="#d3d3d8"></path><path d="m30 30h270v241h-270zm0 0" fill="#25d9f8"></path><path d="m165 30h135v241h-135zm0 0" fill="#00c0f1"></path><path d="m165 61c-24.902344 0-45 20.097656-45 45s20.097656 45 45 45 45-20.097656 45-45-20.097656-45-45-45zm0 0" fill="#3e5959"></path><path d="m240 226v30h-150v-30c0-41.398438 33.601562-75 75-75s75 33.601562 75 75zm0 0" fill="#3e5959"></path><path d="m165 151v-90c24.902344 0 45 20.097656 45 45s-20.097656 45-45 45zm0 0" fill="#293939"></path><path d="m240 226v30h-75v-105c41.398438 0 75 33.601562 75 75zm0 0" fill="#293939"></path><path d="m0 241h330v210h-330zm0 0" fill="#ececf1"></path><path d="m165 241h165v210h-165zm0 0" fill="#d3d3d8"></path><path d="m150 391h-90v-90h90zm0 0" fill="#d3d3d8"></path><g fill="#babac0"><path d="m180 301h90v30h-90zm0 0"></path><path d="m180 361h90v30h-90zm0 0"></path></g></svg>