<!-- icon666.com - MILLIONS OF FREE VECTOR ICONS --><svg viewBox="-61 0 512 512" xmlns="http://www.w3.org/2000/svg"><path d="m300 271h-300v150h300zm-165 120h-90v-90h90zm120 0h-90v-30h90zm0-60h-90v-30h90zm0 0"></path><path d="m75 331h30v30h-30zm0 0"></path><path d="m75 226c0-41.351562 33.648438-75 75-75-24.8125 0-45-20.1875-45-45s20.1875-45 45-45 45 20.1875 45 45-20.1875 45-45 45c41.351562 0 75 33.648438 75 75v15h75v-241h-300v241h75zm0 0"></path><path d="m105 226v15h90v-15c0-24.8125-20.1875-45-45-45s-45 20.1875-45 45zm0 0"></path><path d="m150 91c-8.277344 0-15 6.722656-15 15s6.722656 15 15 15 15-6.722656 15-15-6.722656-15-15-15zm0 0"></path><path d="m330 91h60v240h-60zm0 0"></path><path d="m90 512h300v-151h-60v90h-240zm0 0"></path></svg>