<!-- icon666.com - MILLIONS OF FREE VECTOR ICONS --><svg viewBox="-8 0 480 480" xmlns="http://www.w3.org/2000/svg"><path d="m256 112h-16v-16c0-44.113281-35.886719-80-80-80s-80 35.886719-80 80v16h-16v-16c0-52.9375 43.0625-96 96-96s96 43.0625 96 96zm0 0" fill="#000000" style="fill: rgb(255, 255, 255);"></path><path d="m192 296c0 3.71875.742188 7.304688 2 10.6875l176.664062-176.65625c-3.40625-1.269531-7-2.03125-10.664062-2.03125-8.0625 0-15.953125 3.273438-21.65625 8.96875l-137.375 137.375c-5.703125 5.695312-8.96875 13.59375-8.96875 21.65625zm0 0" fill="#000000" style="fill: rgb(255, 255, 255);"></path><path d="m240 184c0-4.40625-3.585938-8-8-8h-144c-4.414062 0-8 3.59375-8 8v64c0 4.40625 3.585938 8 8 8h108.6875l43.3125-43.3125zm0 0" fill="#000000" style="fill: rgb(255, 255, 255);"></path><path d="m317.785156 410.558594c-6.671875 3.519531-14.183594 5.441406-21.785156 5.441406-12.273438 0-24.289062-4.976562-32.96875-13.65625l-73.375-73.375c-8.808594-8.800781-13.65625-20.511719-13.65625-32.96875 0-8.472656 2.414062-16.792969 6.734375-24h-94.734375c-13.230469 0-24-10.769531-24-24v-64c0-13.230469 10.769531-24 24-24h144c13.230469 0 24 10.769531 24 24v12.6875l24.191406-24.191406-3.832031-24.238282c-1.847656-11.738281-11.824219-20.257812-23.703125-20.257812h-185.3125c-11.878906 0-21.863281 8.519531-23.710938 20.257812l-43.007812 272.390626c-.417969 2.640624-.625 5.328124-.625 8.007812 0 28.3125 23.03125 51.34375 51.34375 51.34375h217.3125c28.3125 0 51.34375-23.03125 51.34375-51.34375 0-2.679688-.207031-5.367188-.625-8zm-221.785156 53.441406h-44.65625c-19.496094 0-35.34375-15.855469-35.34375-35.34375 0-1.855469.144531-3.71875.441406-5.535156l5.117188-32.367188 15.800781 2.492188-5.121094 32.402344c-.160156 1.007812-.238281 2.007812-.238281 3.007812 0 10.671875 8.679688 19.34375 19.34375 19.34375h44.65625zm32 0h-16v-16h16zm0 0" fill="#000000" style="fill: rgb(255, 255, 255);"></path><path d="m203.308594 320.003906 180.683594-180.683594 12.691406 12.6875-180.683594 180.683594zm0 0" fill="#000000" style="fill: rgb(255, 255, 255);"></path><path d="m455.03125 210.34375-47.03125-47.03125-180.6875 180.6875 47.03125 47.03125c5.703125 5.695312 13.59375 8.96875 21.65625 8.96875s15.953125-3.273438 21.65625-8.96875l.03125-.03125.3125-.304688 137.03125-137.03125c5.785156-5.792968 8.96875-13.488281 8.96875-21.664062s-3.183594-15.871094-8.96875-21.65625zm-185.375 147.3125-11.3125-11.3125 56-56 11.3125 11.3125zm24 24-11.3125-11.3125 40-40 11.3125 11.3125zm98.34375-90.34375-35.3125-35.3125 59.3125-59.3125 35.3125 35.3125zm0 0" fill="#000000" style="fill: rgb(255, 255, 255);"></path><path d="m379.308594 256.007812 36.683594-36.683593 12.691406 12.6875-36.6875 36.683593zm0 0" fill="#000000" style="fill: rgb(255, 255, 255);"></path></svg>