<!-- icon666.com - MILLIONS OF FREE VECTOR ICONS --><svg viewBox="0 0 480 480" xmlns="http://www.w3.org/2000/svg"><path d="m456 344h-193.601562c-6.398438 0-12.796876 2.398438-16.796876 7.199219l-30.402343 30.402343c-1.597657 1.597657-3.199219 2.398438-5.597657 2.398438h-185.601562c-13.601562 0-24 10.398438-24 24v48c0 13.601562 10.398438 24 24 24h432c13.601562 0 24-10.398438 24-24v-88c0-13.601562-10.398438-24-24-24zm8 112c0 4.800781-3.199219 8-8 8h-432c-4.800781 0-8-3.199219-8-8v-8h217.601562c6.398438 0 12.796876-2.398438 16.796876-7.199219l38.402343-38.402343c1.597657-1.597657 3.199219-2.398438 5.597657-2.398438h25.601562v-16h-25.601562c-6.398438 0-12.796876 2.398438-16.796876 7.199219l-38.402343 38.402343c-1.597657 1.597657-3.199219 2.398438-5.597657 2.398438h-217.601562v-24c0-4.800781 3.199219-8 8-8h185.601562c6.398438 0 12.796876-2.398438 16.796876-7.199219l30.402343-30.402343c1.597657-1.597657 3.199219-2.398438 5.597657-2.398438h193.601562c4.800781 0 8 3.199219 8 8zm0 0"></path><path d="m206.398438 193.601562c9.601562 9.597657 25.601562 9.597657 35.203124 0 9.597657-9.601562 9.597657-25.601562 0-35.203124l-36-36-11.203124 11.203124 36 36c3.203124 3.199219 3.203124 8.796876 0 12.796876-3.199219 4-8.796876 3.203124-12.796876 0l-46.402343-46.398438h-43.199219v16h36.800781zm0 0"></path><path d="m32 152h16v16h-16zm0 0"></path><path d="m109.601562 224.800781c4.796876 4.800781 10.398438 7.199219 16.796876 7.199219h33.601562v56c0 13.601562 10.398438 24 24 24h208c13.601562 0 24-10.398438 24-24v-128c0-13.601562-10.398438-24-24-24h-108.800781l-64.800781-64.800781c-4.796876-4.800781-10.398438-7.199219-16.796876-7.199219h-105.601562v-8h-96v144h84.800781zm92-144.800781c2.398438 0 4 .800781 5.597657 2.398438l53.601562 53.601562h-12.800781v16h144c4.800781 0 8 3.199219 8 8v16h-136v16h136v24h-208v16h208v56c0 4.800781-3.199219 8-8 8h-208c-4.800781 0-8-3.199219-8-8v-104h-16v32h-33.601562c-2.398438 0-4-.800781-5.597657-2.398438l-24.800781-24.800781v-108.800781zm-121.601562 104h-64v-112h16v64h16v-64h32zm0 0"></path><path d="m432 160h40v16h-40zm0 0"></path><path d="m440 200h32v16h-32zm0 0"></path><path d="m448 240h24v16h-24zm0 0"></path><path d="m96 328v-16h16v-16h-16v-16h-16v16h-16v16h16v16zm0 0"></path><path d="m384 104v-16h16v-16h-16v-16h-16v16h-16v16h16v16zm0 0"></path><path d="m280 48v-16h16v-16h-16v-16h-16v16h-16v16h16v16zm0 0"></path></svg>