<!-- icon666.com - MILLIONS OF FREE VECTOR ICONS --><svg viewBox="-4 0 464 464" xmlns="http://www.w3.org/2000/svg"><path d="m440 360h-193.601562c-2.398438 0-4 .800781-5.597657 2.398438l-30.402343 30.402343c-4.796876 4.800781-10.398438 7.199219-16.796876 7.199219h-185.601562c-4.800781 0-8 3.199219-8 8v24h217.601562c2.398438 0 4-.800781 5.597657-2.398438l38.402343-38.402343c4.796876-4.800781 10.398438-7.199219 16.796876-7.199219h25.601562v16h-25.601562c-2.398438 0-4 .800781-5.597657 2.398438l-38.402343 38.402343c-4.796876 4.800781-10.398438 7.199219-16.796876 7.199219h-217.601562v8c0 4.800781 3.199219 8 8 8h432c4.800781 0 8-3.199219 8-8v-88c0-4.800781-3.199219-8-8-8zm0 0" fill="#000000" style="fill: rgb(255, 255, 255);"></path><path d="m64 72h-32v64h-16v-64h-16v112h64zm-32 96h-16v-16h16zm0 0" fill="#000000" style="fill: rgb(255, 255, 255);"></path><path d="m110.398438 216h33.601562v-32h16v104c0 4.800781 3.199219 8 8 8h208c4.800781 0 8-3.199219 8-8v-56h-208v-16h208v-24h-136v-16h136v-16c0-4.800781-3.199219-8-8-8h-144v-16h12.800781l-53.601562-53.601562c-1.597657-1.597657-3.199219-2.398438-5.597657-2.398438h-105.601562v108.800781l24.800781 24.800781c1.597657 1.597657 4 2.398438 5.597657 2.398438zm1.601562-80h43.199219l46.402343 46.398438c3.199219 3.203124 8.796876 3.203124 12.796876 0 4-3.199219 3.203124-8.796876 0-12.796876l-36-36 11.203124-11.203124 36 36c9.597657 9.601562 9.597657 25.601562 0 35.203124-9.601562 9.597657-25.601562 9.597657-35.203124 0l-41.597657-41.601562h-36.800781zm0 0" fill="#000000" style="fill: rgb(255, 255, 255);"></path><path d="m416 160h40v16h-40zm0 0" fill="#000000" style="fill: rgb(255, 255, 255);"></path><path d="m424 200h32v16h-32zm0 0" fill="#000000" style="fill: rgb(255, 255, 255);"></path><path d="m432 240h24v16h-24zm0 0" fill="#000000" style="fill: rgb(255, 255, 255);"></path><path d="m64 280v16h-16v16h16v16h16v-16h16v-16h-16v-16zm0 0" fill="#000000" style="fill: rgb(255, 255, 255);"></path><path d="m352 104h16v-16h16v-16h-16v-16h-16v16h-16v16h16zm0 0" fill="#000000" style="fill: rgb(255, 255, 255);"></path><path d="m248 48h16v-16h16v-16h-16v-16h-16v16h-16v16h16zm0 0" fill="#000000" style="fill: rgb(255, 255, 255);"></path></svg>