<!-- icon666.com - MILLIONS OF FREE VECTOR ICONS --><svg viewBox="0 0 496 496" xmlns="http://www.w3.org/2000/svg"><path d="m496 232c0-12.457031-4.847656-24.167969-13.65625-32.96875l-73.375-73.375c-8.679688-8.679688-20.695312-13.65625-32.96875-13.65625s-24.289062 4.976562-32.96875 13.65625l-32.855469 32.855469-2.015625-12.75c-2.914062-18.441407-17.871094-31.953125-36.167968-33.464844v-16.296875c0-52.9375-43.0625-96-96-96s-95.992188 43.0625-95.992188 96v16.296875c-18.289062 1.511719-33.257812 15.023437-36.167969 33.464844l-43 272.390625c-.550781 3.457031-.832031 6.992187-.832031 10.503906 0 37.136719 30.207031 67.34375 67.34375 67.34375h217.3125c37.136719 0 67.34375-30.207031 67.34375-67.34375 0-3.511719-.28125-7.046875-.832031-10.503906l-3-19.007813 134.175781-134.175781c8.808594-8.800781 13.65625-20.511719 13.65625-32.96875zm-83.3125-80-180.6875 180.6875-12.6875-12.6875 180.6875-180.6875zm-156.6875 60.6875-43.3125 43.3125h-108.6875c-4.414062 0-8-3.59375-8-8v-64c0-4.40625 3.585938-8 8-8h144c4.414062 0 8 3.59375 8 8zm98.34375-75.71875c5.703125-5.695312 13.59375-8.96875 21.65625-8.96875 3.664062 0 7.257812.761719 10.664062 2.023438l-176.664062 176.664062c-1.257812-3.382812-2-6.96875-2-10.6875 0-8.0625 3.265625-15.960938 8.96875-21.65625zm-178.34375-120.96875c44.113281 0 80 35.886719 80 80v16h-160v-16c0-44.113281 35.886719-80 80-80zm108.65625 464h-217.3125c-28.3125 0-51.34375-23.03125-51.34375-51.34375 0-2.679688.207031-5.367188.625-8.007812l43.007812-272.390626c1.855469-11.738281 11.832032-20.257812 23.710938-20.257812h185.3125c11.878906 0 21.855469 8.519531 23.710938 20.257812l3.824218 24.238282-24.191406 24.191406v-12.6875c0-13.230469-10.769531-24-24-24h-144c-13.230469 0-24 10.769531-24 24v64c0 13.230469 10.769531 24 24 24h94.734375c-4.320313 7.214844-6.734375 15.527344-6.734375 24 0 12.457031 4.847656 24.167969 13.65625 32.96875l73.375 73.375c8.679688 8.679688 20.695312 13.65625 32.96875 13.65625 7.609375 0 15.105469-1.921875 21.785156-5.441406l1.589844 10.089844c.417969 2.632812.625 5.328124.625 8 0 28.320312-23.03125 51.351562-51.34375 51.351562zm186.375-226.34375-126.269531 126.265625-.027344-.121094-10.8125 10.960938-.273437.269531c-5.695313 5.695312-13.585938 8.96875-21.648438 8.96875s-15.953125-3.273438-21.65625-8.96875l-47.03125-47.03125 180.6875-180.6875 47.03125 47.03125c5.785156 5.785156 8.96875 13.480469 8.96875 21.65625s-3.183594 15.871094-8.96875 21.65625zm0 0"></path><path d="m372.6875 256 35.3125 35.3125 59.3125-59.3125-35.3125-35.3125zm35.3125 12.6875-12.6875-12.6875 36.6875-36.6875 12.6875 12.6875zm0 0"></path><path d="m298.335938 370.34375 40-39.996094 11.3125 11.3125-40 40zm0 0"></path><path d="m274.335938 346.34375 55.996093-55.996094 11.316407 11.3125-55.996094 55.996094zm0 0"></path><path d="m128 448h16v16h-16zm0 0"></path><path d="m48 428.65625c0-1 .078125-2 .230469-3.007812l5.121093-32.402344-15.800781-2.492188-5.117187 32.367188c-.289063 1.816406-.433594 3.679687-.433594 5.535156 0 19.488281 15.847656 35.34375 35.34375 35.34375h44.65625v-16h-44.65625c-10.664062 0-19.34375-8.671875-19.34375-19.34375zm0 0"></path></svg>