<!-- icon666.com - MILLIONS OF FREE VECTOR ICONS --><svg id="Layer_1" enable-background="new 0 0 256 256" viewBox="0 0 256 256" xmlns="http://www.w3.org/2000/svg"><g><path d="m180.46 93.72h-104.92l37.48-64.92c6.66-11.53 23.3-11.53 29.96 0z" fill="#fc5d3d"></path><path d="m232.55 235.85h-209.1c-13.32 0-21.65-14.42-14.99-25.95l24.38-42.23h190.32l24.38 42.23c6.66 11.53-1.67 25.95-14.99 25.95z" fill="#13bf6d"></path><path d="m223.16 167.67h-190.32l42.7-73.95h104.92z" fill="#f0c020"></path><path d="m164.401 94.946-9.804-17.433c-.677-1.204-.25-2.728.953-3.405s2.728-.25 3.404.954l9.804 17.433c.677 1.204.25 2.728-.953 3.405-1.203.676-2.726.25-3.404-.954zm-14.705-26.149-2.875-5.112c-.677-1.204-.25-2.728.953-3.405 1.204-.677 2.727-.25 3.404.954l2.875 5.112c.677 1.204.25 2.728-.953 3.405-1.203.676-2.726.251-3.404-.954z" fill="#ffcbc2"></path><path d="m223.491 200.035-2.94-5.23c-.677-1.204-.25-2.728.953-3.404 1.205-.677 2.729-.25 3.404.954l2.94 5.23c.677 1.204.25 2.728-.953 3.404-1.205.677-2.729.249-3.404-.954zm-7.842-13.946-9.668-17.194c-.677-1.203-.25-2.728.953-3.404 1.205-.677 2.729-.25 3.404.954l9.668 17.194c.677 1.203.25 2.728-.953 3.404-1.204.677-2.729.249-3.404-.954z" fill="#76ffba"></path><path d="m205.981 168.895-14.213-25.278c-.677-1.204-.25-2.728.953-3.404 1.205-.676 2.729-.25 3.404.954l14.213 25.278c.677 1.203.25 2.728-.953 3.404-1.204.677-2.729.249-3.404-.954zm-19.114-33.995-22.466-39.955c-.677-1.203-.25-2.728.953-3.404 1.204-.677 2.729-.25 3.404.954l22.466 39.955c.677 1.203.25 2.728-.953 3.404-1.205.677-2.729.25-3.404-.954z" fill="#f9e5af"></path><path d="m88.958 95.899c-1.203-.677-1.63-2.201-.954-3.405l2.875-5.112c.677-1.203 2.201-1.631 3.405-.954 1.203.677 1.63 2.201.954 3.405l-2.875 5.112c-.676 1.203-2.199 1.632-3.405.954zm7.777-13.827c-1.203-.677-1.63-2.201-.954-3.405l9.804-17.433c.676-1.203 2.199-1.631 3.405-.954 1.203.677 1.63 2.201.954 3.405l-9.804 17.433c-.677 1.202-2.2 1.631-3.405.954z" fill="#ffcbc2"></path><path d="m29.869 200.989c-1.204-.677-1.631-2.201-.954-3.404l9.668-17.194c.677-1.205 2.2-1.631 3.404-.954s1.631 2.201.954 3.404l-9.668 17.194c-.676 1.204-2.201 1.631-3.404.954zm14.569-25.91c-1.203-.677-1.63-2.201-.954-3.405l2.941-5.23c.677-1.204 2.2-1.631 3.405-.954 1.203.677 1.63 2.201.954 3.405l-2.941 5.23c-.676 1.203-2.199 1.631-3.405.954z" fill="#76ffba"></path><path d="m47.379 169.849c-1.204-.677-1.631-2.201-.954-3.404l22.465-39.955c.676-1.205 2.201-1.631 3.404-.954 1.204.677 1.631 2.201.954 3.404l-22.465 39.955c-.676 1.204-2.2 1.631-3.404.954zm27.367-48.671c-1.204-.677-1.631-2.201-.954-3.404l14.213-25.278c.677-1.203 2.202-1.631 3.404-.954 1.204.677 1.631 2.201.954 3.404l-14.213 25.278c-.676 1.203-2.201 1.63-3.404.954z" fill="#f9e5af"></path><g fill="#ffb69f"><circle cx="128" cy="50.917" r="9"></circle><circle cx="103.816" cy="120.362" r="9"></circle><circle cx="152.184" cy="120.362" r="9"></circle><circle cx="57.529" cy="189.807" r="9"></circle><circle cx="104.51" cy="189.807" r="9"></circle><circle cx="151.49" cy="189.807" r="9"></circle><circle cx="198.471" cy="189.807" r="9"></circle></g><path d="m23.45 238.35h9.1c1.38 0 2.5-1.12 2.5-2.5s-1.12-2.5-2.5-2.5h-9.1c-11.282-.013-18.571-12.27-12.83-22.2l23.663-40.98h128.877c1.38 0 2.5-1.12 2.5-2.5s-1.12-2.5-2.5-2.5h-125.991l39.813-68.95h18.558c1.38 0 2.5-1.12 2.5-2.5s-1.12-2.5-2.5-2.5h-15.671l35.321-61.17c5.693-9.851 19.906-9.867 25.629 0l35.314 61.17h-60.593c-1.38 0-2.5 1.12-2.5 2.5s1.12 2.5 2.5 2.5h63.48l39.806 68.95h-35.666c-1.38 0-2.5 1.12-2.5 2.5s1.12 2.5 2.5 2.5h38.552l23.658 40.98c5.795 10.064-1.651 22.186-12.82 22.2h-180c-1.38 0-2.5 1.12-2.5 2.5s1.12 2.5 2.5 2.5h180c15.347-.027 24.733-16.645 17.15-29.7l-104.551-181.1c-7.628-13.194-26.666-13.2-34.3 0l-104.559 181.1c-7.564 13.096 1.833 29.672 17.16 29.7z"></path><circle cx="42.55" cy="235.85" r="2.5"></circle><path d="m112.13 73.29v7.29c0 1.392 1.114 2.5 2.5 2.5h26.74c1.389 0 2.5-1.116 2.5-2.5v-7.29c0-5.953-3.3-11.146-8.163-13.861 2.323-2.106 3.793-5.136 3.793-8.509 0-6.34-5.16-11.5-11.5-11.5s-11.5 5.16-11.5 11.5c0 3.374 1.47 6.404 3.792 8.509-4.862 2.715-8.162 7.908-8.162 13.861zm9.37-22.37c.01-3.58 2.92-6.5 6.5-6.5s6.49 2.92 6.5 6.5c-.01 3.57-2.92 6.49-6.5 6.5-3.58-.01-6.49-2.93-6.5-6.5zm-4.38 22.37c.02-5.98 4.89-10.86 10.88-10.87 5.979.01 10.859 4.89 10.88 10.87v4.79h-21.76z"></path><path d="m87.94 142.74v7.29c0 .66.27 1.3.73 1.77.47.46 1.11.73 1.77.73h26.75c.67 0 1.3-.26 1.77-.74.47-.47.73-1.09.73-1.76v-7.29c0-5.961-3.301-11.157-8.166-13.872 2.319-2.106 3.786-5.135 3.786-8.508 0-6.34-5.15-11.5-11.49-11.5s-11.5 5.16-11.5 11.5c0 3.372 1.469 6.401 3.79 8.507-4.868 2.715-8.17 7.911-8.17 13.873zm9.37-22.38c.01-3.57 2.93-6.49 6.51-6.5 3.57.01 6.49 2.93 6.5 6.5-.01 3.58-2.93 6.5-6.5 6.5-3.58 0-6.5-2.92-6.51-6.5zm-4.37 22.38c.01-5.99 4.89-10.87 10.88-10.88 5.98.01 10.86 4.89 10.87 10.88v4.79h-21.75z"></path><path d="m136.31 142.74v7.29c0 .66.271 1.3.73 1.77.46.46 1.109.73 1.77.73h26.75c.67 0 1.29-.26 1.76-.73.48-.47.74-1.1.74-1.77v-7.29c0-5.956-3.302-11.155-8.171-13.872 2.322-2.106 3.792-5.135 3.792-8.508 0-6.34-5.16-11.5-11.5-11.5s-11.49 5.16-11.5 11.5c.005 3.374 1.475 6.404 3.796 8.51-4.866 2.717-8.167 7.915-8.167 13.87zm9.37-22.38c.01-3.58 2.92-6.49 6.5-6.5 3.58.01 6.5 2.92 6.5 6.5s-2.92 6.5-6.5 6.5-6.491-2.92-6.5-6.5zm-4.37 22.38c.01-5.99 4.891-10.87 10.87-10.88 5.99.01 10.87 4.89 10.88 10.88v4.79h-21.75z"></path><path d="m73.4 219.47v-7.29c0-5.954-3.301-11.147-8.165-13.862 2.324-2.105 3.795-5.133 3.795-8.508 0-6.34-5.16-11.5-11.5-11.5s-11.5 5.16-11.5 11.5c0 3.375 1.471 6.403 3.795 8.507-4.865 2.715-8.168 7.908-8.175 13.862v7.29c0 1.348 1.096 2.5 2.5 2.5h26.75c1.384.001 2.5-1.109 2.5-2.499zm-22.37-29.66c0-3.58 2.92-6.5 6.5-6.5 3.57 0 6.49 2.92 6.5 6.5-.01 3.58-2.93 6.49-6.5 6.5-3.58-.01-6.5-2.92-6.5-6.5zm17.37 27.16h-21.75v-4.79c.01-5.98 4.89-10.86 10.88-10.87 5.98.01 10.86 4.89 10.87 10.87z"></path><path d="m88.63 212.18v7.29c0 1.348 1.096 2.5 2.5 2.5h26.75c1.384 0 2.5-1.11 2.5-2.5v-7.29c0-5.954-3.301-11.147-8.165-13.862 2.324-2.105 3.795-5.133 3.795-8.508 0-6.34-5.16-11.5-11.5-11.5s-11.5 5.16-11.5 11.5c0 3.375 1.471 6.403 3.795 8.507-4.865 2.715-8.168 7.908-8.175 13.863zm9.38-22.37c.01-3.58 2.92-6.5 6.5-6.5s6.49 2.92 6.5 6.5c-.01 3.57-2.92 6.49-6.5 6.5-3.58-.01-6.49-2.93-6.5-6.5zm-4.38 22.37c.02-5.98 4.89-10.86 10.88-10.87 5.99.01 10.86 4.89 10.87 10.87v4.79h-21.75z"></path><path d="m135.609 212.18v7.29c0 1.35 1.099 2.5 2.5 2.5h26.761c1.363 0 2.489-1.102 2.489-2.5v-7.29c0-5.954-3.301-11.147-8.164-13.862 2.324-2.105 3.795-5.133 3.795-8.508 0-6.34-5.16-11.5-11.5-11.5-6.341 0-11.5 5.16-11.5 11.5 0 3.375 1.471 6.403 3.795 8.508-4.865 2.714-8.168 7.907-8.176 13.862zm9.381-22.37c.01-3.58 2.92-6.5 6.5-6.5 3.579 0 6.489 2.92 6.5 6.5-.011 3.57-2.921 6.49-6.5 6.5-3.58-.01-6.49-2.93-6.5-6.5zm-4.381 22.37c.011-5.98 4.891-10.86 10.881-10.87 5.989.01 10.859 4.89 10.88 10.87v4.79h-21.761z"></path><path d="m182.6 212.18v7.29c0 1.357 1.083 2.5 2.5 2.5h26.75c1.345 0 2.5-1.09 2.5-2.5v-7.29c-.007-5.953-3.309-11.146-8.172-13.861 2.322-2.106 3.792-5.135 3.792-8.509 0-6.34-5.16-11.5-11.5-11.5s-11.5 5.16-11.5 11.5c0 3.374 1.47 6.403 3.793 8.509-4.863 2.715-8.163 7.908-8.163 13.861zm9.37-22.37c.01-3.58 2.92-6.5 6.5-6.5s6.5 2.92 6.5 6.5c0 3.57-2.92 6.49-6.5 6.5-3.58-.01-6.491-2.93-6.5-6.5zm-4.37 22.37c.01-5.98 4.88-10.86 10.87-10.87 5.99.01 10.87 4.89 10.88 10.87v4.79h-21.75z"></path><circle cx="105.54" cy="93.72" r="2.5"></circle><circle cx="173.16" cy="167.67" r="2.5"></circle></g></svg>