<!-- icon666.com - MILLIONS OF FREE VECTOR ICONS --><svg viewBox="0 0 48 48" xmlns="http://www.w3.org/2000/svg"><g id="Line"><path d="m10 46h28c.553 0 1-.448 1-1v-42c0-.552-.447-1-1-1h-28c-.553 0-1 .448-1 1v42c0 .552.447 1 1 1zm1-42h26v40h-26z"></path><path d="m19 30c-3.309 0-6 2.691-6 6s2.691 6 6 6 6-2.691 6-6-2.691-6-6-6zm3.858 5h-2.578l.624-2.496c.957.524 1.674 1.417 1.954 2.496zm-3.889-2.997-.872 3.486-2.53 2.53c-1.208-1.427-.695-5.853 3.402-6.016zm-1.988 7.43 2.433-2.433h3.444c-.407 1.887-2.939 4.063-5.877 2.433z"></path><path d="m15 16.855s-.126 1.145 1 1.145c1.109 0 1-1.145 1-1.145 1.155-.366 2-1.435 2-2.709 0-1.088-.604-2.066-1.578-2.553l-1.949-.975c-.292-.145-.473-.438-.473-.764 0-.471.384-.854.854-.854h.291c.471 0 .855.383.855.854 0 0-.099 1.146 1 1.146 1.092 0 1-1.146 1-1.146 0-1.274-.845-2.343-2-2.709 0 0 .068-1.145-1-1.145-1.12 0-1 1.145-1 1.145-1.155.366-2 1.435-2 2.709 0 1.088.604 2.066 1.578 2.553l1.949.975c.292.145.473.438.473.764 0 .471-.384.854-.854.854h-.291c-.471 0-.855-.383-.855-.854 0 0 .087-1.146-1-1.146-1.068 0-1 1.146-1 1.146 0 1.274.845 2.343 2 2.709z"></path><path d="m33 7v9c0 1.356 2 1.328 2 0v-9c0-1.344-2-1.288-2 0z"></path><path d="m29 10v6c0 1.356 2 1.328 2 0v-6c0-1.344-2-1.288-2 0z"></path><path d="m25 13v3c0 1.356 2 1.328 2 0v-3c0-1.344-2-1.288-2 0z"></path><path d="m34 21h-15c-1.336 0-1.328 2 0 2h15c1.327 0 1.329-2 0-2z"></path><path d="m21 15v1c0 1.356 2 1.328 2 0v-1c0-1.344-2-1.288-2 0z"></path><path d="m34 25h-18c-1.336 0-1.328 2 0 2h18c1.327 0 1.329-2 0-2z"></path><path d="m34 29h-10c-1.336 0-1.328 2 0 2h10c1.327 0 1.329-2 0-2z"></path><path d="m34 33h-7c-1.336 0-1.328 2 0 2h7c1.327 0 1.329-2 0-2z"></path><path d="m34 37h-6c-1.336 0-1.328 2 0 2h6c1.327 0 1.329-2 0-2z"></path></g></svg>