<!-- icon666.com - MILLIONS OF FREE VECTOR ICONS --><svg clip-rule="evenodd" fill-rule="evenodd" stroke-linejoin="round" stroke-miterlimit="2" viewBox="0 0 267 267" xmlns="http://www.w3.org/2000/svg"><path d="m84.476 66.765c-2.027-2.971-5.276-4.88-8.858-5.205-.017-.002-.035-.003-.053-.005-3.396-.25-6.806-.25-10.2.033-.007 0-.015.001-.023.002-3.573.324-6.814 2.228-8.837 5.191-1.189 1.69-2.614 3.777-3.676 5.333-.643.94-1.549 1.67-2.605 2.099-.004.001-.007.002-.011.004-4.252 1.742-8.249 4.049-11.897 6.843-.007.005-.013.01-.02.015-.896.697-1.977 1.115-3.11 1.201-.012.001-.025.002-.038.003-1.853.163-4.342.351-6.419.508-3.586.271-6.863 2.13-8.936 5.069-.01.014-.02.029-.03.043-1.916 2.816-3.62 5.77-5.072 8.85-.004.007-.007.014-.01.021-1.506 3.257-1.478 7.016.077 10.249.869 1.874 1.964 4.152 2.78 5.85.493 1.026.672 2.177.515 3.306 0 .003-.001.007-.001.011-.618 4.553-.618 9.168-.023 13.725.001.008.002.016.004.024.156 1.125-.024 2.271-.516 3.294-.005.011-.011.023-.016.034-.786 1.687-1.867 3.937-2.769 5.814-1.559 3.24-1.588 7.008-.079 10.273.007.016.015.032.023.048 1.481 3.066 3.187 6.02 5.128 8.817.004.007.009.013.013.02 2.068 2.932 5.337 4.787 8.914 5.057 2.058.185 4.578.375 6.457.517 1.135.087 2.221.507 3.12 1.207.003.002.006.005.009.007 3.635 2.811 7.631 5.119 11.875 6.882.007.003.015.006.023.009 1.052.427 1.954 1.155 2.595 2.093.007.011.014.021.021.032 1.068 1.523 2.476 3.585 3.65 5.305 2.027 2.97 5.276 4.879 8.858 5.204.017.002.035.003.053.005 3.396.25 6.807.25 10.2-.033.008 0 .015-.001.023-.002 3.573-.324 6.814-2.228 8.837-5.191 1.189-1.69 2.614-3.777 3.676-5.333.643-.94 1.549-1.67 2.606-2.098.003-.002.006-.003.01-.005 4.252-1.742 8.249-4.049 11.897-6.843.007-.005.013-.01.02-.015.896-.697 1.978-1.115 3.11-1.201.013-.001.025-.002.038-.003 1.853-.163 4.342-.351 6.419-.508 3.586-.27 6.863-2.129 8.936-5.069.011-.014.021-.029.031-.043 1.915-2.816 3.619-5.77 5.072-8.85.003-.007.006-.014.01-.021 1.505-3.257 1.477-7.016-.078-10.249-.869-1.874-1.964-4.152-2.78-5.85-.493-1.026-.672-2.177-.515-3.306.001-.003.001-.007.002-.01.617-4.554.618-9.169.022-13.726-.001-.008-.002-.016-.003-.024-.156-1.125.023-2.27.515-3.294.005-.011.011-.023.016-.034.786-1.687 1.867-3.937 2.769-5.814 1.559-3.24 1.588-7.008.079-10.273-.007-.016-.015-.032-.023-.048-1.481-3.066-3.187-6.02-5.128-8.817-.004-.007-.009-.013-.013-.02-2.067-2.932-5.337-4.787-8.914-5.057-2.058-.185-4.578-.375-6.457-.517-1.135-.087-2.221-.507-3.12-1.207-.003-.002-.006-.005-.009-.007-3.634-2.811-7.631-5.119-11.875-6.882-.007-.003-.015-.006-.023-.009-1.052-.427-1.954-1.155-2.595-2.093-.007-.011-.014-.021-.021-.032-1.068-1.523-2.476-3.585-3.65-5.304z" fill="#57d168"></path><path d="m163.364 123.839c-3.614-1.632-7.768-1.563-11.327.188-.016.008-.031.016-.047.024-3.429 1.76-6.725 3.772-9.837 6.045-.006.005-.013.009-.019.014-3.169 2.352-5.124 5.994-5.334 9.934-.156 2.391-.302 5.255-.412 7.391-.071 1.379-.548 2.709-1.372 3.82-.002.003-.004.006-.006.009-3.077 4.184-5.575 8.763-7.45 13.607-.003.007-.006.015-.009.023-.487 1.289-1.344 2.406-2.463 3.21-.01.007-.02.015-.031.023-1.706 1.258-4.015 2.918-5.941 4.304-3.22 2.314-5.238 5.946-5.5 9.903-.002.018-.003.035-.004.053-.19 3.85-.095 7.71.318 11.542 0 .007.001.015.002.023.452 3.92 2.629 7.435 5.936 9.586 1.993 1.33 4.399 2.889 6.195 4.052 1.159.752 2.071 1.83 2.622 3.098.002.004.003.007.005.01 2.085 4.757 4.801 9.21 8.059 13.256.005.006.01.013.015.019.873 1.066 1.412 2.367 1.549 3.738.001.013.003.025.004.038.237 2.107.52 4.937.756 7.298.395 3.945 2.532 7.508 5.827 9.715.015.009.029.019.044.029 3.239 2.089 6.629 3.937 10.154 5.496.007.003.015.006.022.009 3.621 1.569 7.753 1.441 11.27-.347 2.148-1.061 4.702-2.365 6.606-3.339 1.231-.628 2.621-.879 3.995-.722.003 0 .007.001.01.001 5.163.573 10.377.447 15.509-.351.009-.002.017-.003.025-.004 1.36-.223 2.755-.039 4.011.528.012.005.024.01.035.015 1.943.848 4.536 2.018 6.698 2.994 3.614 1.631 7.769 1.562 11.327-.189.016-.008.032-.015.047-.024 3.43-1.76 6.725-3.771 9.837-6.045.007-.005.013-.009.019-.014 3.169-2.352 5.125-5.994 5.335-9.933.155-2.391.302-5.255.411-7.391.072-1.38.549-2.709 1.372-3.821.002-.003.004-.006.006-.009 3.077-4.184 5.576-8.763 7.45-13.607.003-.007.006-.015.009-.023.487-1.289 1.344-2.405 2.463-3.21.01-.007.021-.015.031-.022 1.706-1.259 4.015-2.919 5.942-4.304 3.219-2.314 5.237-5.947 5.5-9.904.001-.017.002-.035.003-.053.19-3.85.096-7.709-.317-11.541-.001-.008-.002-.016-.003-.024-.452-3.92-2.628-7.434-5.935-9.586-1.993-1.33-4.4-2.889-6.195-4.052-1.159-.752-2.072-1.83-2.623-3.098-.001-.004-.003-.007-.004-.01-2.086-4.757-4.802-9.21-8.059-13.256-.005-.006-.011-.012-.016-.019-.873-1.066-1.411-2.366-1.549-3.738-.001-.012-.002-.025-.004-.038-.237-2.107-.52-4.936-.756-7.297-.394-3.946-2.531-7.509-5.827-9.715-.014-.01-.029-.02-.044-.029-3.239-2.09-6.629-3.938-10.154-5.497-.007-.003-.014-.006-.021-.009-3.622-1.569-7.753-1.441-11.27.347-2.149 1.061-4.702 2.366-6.607 3.339-1.23.628-2.62.88-3.994.722-.004 0-.007-.001-.011-.001-5.162-.573-10.377-.447-15.509.352-.008.001-.016.002-.024.004-1.36.222-2.756.038-4.012-.528-.012-.006-.023-.011-.035-.016-1.943-.848-4.535-2.018-6.698-2.993z" fill="#f5035b"></path><circle cx="70.479" cy="123.054" fill="#fbf1cf" r="29.474"></circle><path d="m166.067 158.178c-15.607 9.523-20.546 29.925-11.022 45.532 9.523 15.606 29.925 20.545 45.532 11.022 15.606-9.524 20.545-29.926 11.022-45.532-9.524-15.607-29.926-20.546-45.532-11.022z" fill="#fbf1cf"></path><path d="m164.575 15.97c-2.43-1.051-5.211-.906-7.518.392-.012.006-.024.013-.035.02-8.456 4.9-15.486 11.93-20.365 20.397-.005.01-.01.019-.016.028-1.295 2.301-1.44 5.075-.394 7.499.752 1.791 1.813 4.25 2.524 5.896.204.473.237 1.002.095 1.497-.002.007-.004.015-.007.022-2.339 8.355-2.34 17.191-.014 25.55.002.008.005.016.007.025.141.491.108 1.016-.095 1.486-.004.009-.008.018-.011.027-.689 1.637-1.742 4.074-2.517 5.87-1.05 2.428-.905 5.21.393 7.517.006.012.013.023.02.035 4.899 8.456 11.93 15.485 20.397 20.364.009.006.018.011.028.016 2.301 1.295 5.075 1.441 7.499.394 1.791-.751 4.249-1.813 5.896-2.523.473-.204 1.002-.238 1.497-.095.007.002.014.004.022.006 8.354 2.34 17.191 2.341 25.549.015.009-.003.017-.005.025-.007.492-.142 1.017-.108 1.487.095.008.004.017.007.026.011 1.638.689 4.074 1.741 5.871 2.517 2.428 1.05 5.209.905 7.517-.393.012-.006.023-.013.035-.02 8.456-4.9 15.485-11.93 20.364-20.397.005-.01.011-.019.016-.028 1.295-2.301 1.441-5.075.394-7.499-.751-1.791-1.813-4.25-2.524-5.896-.203-.473-.237-1.002-.094-1.497.002-.007.004-.015.006-.022 2.34-8.355 2.34-17.191.014-25.55-.002-.008-.004-.016-.007-.025-.141-.491-.107-1.016.095-1.486.004-.009.008-.018.012-.027.689-1.637 1.741-4.074 2.517-5.87 1.05-2.429.904-5.21-.393-7.517-.007-.012-.013-.024-.02-.035-4.9-8.456-11.93-15.485-20.398-20.365-.009-.005-.018-.01-.027-.015-2.301-1.295-5.075-1.441-7.499-.394-1.792.751-4.25 1.812-5.896 2.523-.474.204-1.002.238-1.497.095-.008-.002-.015-.004-.022-.006-8.355-2.34-17.191-2.341-25.55-.015-.008.003-.017.005-.025.007-.492.142-1.017.108-1.486-.095-.009-.004-.018-.007-.027-.011-1.637-.689-4.074-1.741-5.87-2.517l.001.001z" fill="#039cf5"></path><circle cx="184.756" cy="64.496" fill="#fbf1cf" r="26.429"></circle></svg>