<!-- icon666.com - MILLIONS OF FREE VECTOR ICONS --><svg viewBox="-68 0 512 512" xmlns="http://www.w3.org/2000/svg"><path d="m368.960938 512h-362.960938c-3.3125 0-6-2.6875-6-6v-500c0-3.3125 2.6875-6 6-6h362.960938c3.3125 0 6 2.6875 6 6v500c0 3.3125-2.6875 6-6 6zm0 0" fill="#dcdfe8"></path><path d="m344.097656 0v512h24.902344c3.3125 0 6-2.6875 6-6v-500c0-3.3125-2.6875-6-6-6zm0 0" fill="#cbcdd9"></path><path d="m374.960938 82.414062h-374.960938v-76.414062c0-3.3125 2.6875-6 6-6h362.960938c3.3125 0 6 2.6875 6 6zm0 0" fill="#5793c9"></path><path d="m375 82.414062h-30.902344v-82.414062h24.902344c3.3125 0 6 2.6875 6 6zm0 0" fill="#4c87bd"></path><path d="m62.828125 40.691406c0 8.535156-6.917969 15.453125-15.453125 15.453125s-15.453125-6.917969-15.453125-15.453125 6.917969-15.453125 15.453125-15.453125 15.453125 6.917969 15.453125 15.453125zm0 0" fill="#ff4b26"></path><path d="m124.640625 40.691406c0 8.535156-6.921875 15.453125-15.453125 15.453125-8.535156 0-15.453125-6.917969-15.453125-15.453125s6.917969-15.453125 15.453125-15.453125c8.53125 0 15.453125 6.917969 15.453125 15.453125zm0 0" fill="#ffd659"></path><path d="m186.449219 40.691406c0 8.535156-6.917969 15.453125-15.453125 15.453125s-15.453125-6.917969-15.453125-15.453125 6.917969-15.453125 15.453125-15.453125 15.453125 6.917969 15.453125 15.453125zm0 0" fill="#47d5e6"></path><g fill="#50536e"><path d="m41.570312 163.148438 57.964844-.003907c4.140625 0 7.5-3.359375 7.5-7.503906 0-4.140625-3.359375-7.496094-7.5-7.496094l-57.964844.003907c-4.140624 0-7.5 3.359374-7.5 7.5 0 4.140624 3.359376 7.5 7.5 7.5zm0 0"></path><path d="m63.050781 186.382812c0 4.140626 3.359375 7.5 7.5 7.5l131.964844-.003906c4.144531 0 7.5-3.359375 7.5-7.5 0-4.144531-3.355469-7.5-7.5-7.5l-131.964844.003906c-4.140625 0-7.5 3.355469-7.5 7.5zm0 0"></path><path d="m202.519531 209.609375-160.945312.007813c-4.144531 0-7.5 3.355468-7.5 7.5 0 4.140624 3.359375 7.5 7.5 7.5l160.945312-.007813c4.140625 0 7.5-3.355469 7.5-7.5 0-4.140625-3.359375-7.5-7.5-7.5zm0 0"></path><path d="m202.519531 241.1875-160.945312.003906c-4.144531 0-7.5 3.359375-7.5 7.5 0 4.144532 3.355469 7.5 7.5 7.5l160.945312-.003906c4.140625 0 7.5-3.359375 7.5-7.5 0-4.144531-3.359375-7.5-7.5-7.5zm0 0"></path><path d="m210.019531 278.394531c0-4.140625-3.359375-7.5-7.5-7.5l-160.949219.007813c-4.140624 0-7.5 3.355468-7.5 7.5 0 4.140625 3.359376 7.5 7.5 7.5l160.949219-.007813c4.140625 0 7.5-3.355469 7.5-7.5zm0 0"></path><path d="m41.570312 300.609375c-4.140624 0-7.5 3.359375-7.5 7.5 0 4.144531 3.359376 7.5 7.5 7.5l91.382813-.003906c4.144531 0 7.5-3.359375 7.5-7.5s-3.355469-7.5-7.5-7.5zm0 0"></path><path d="m218.574219 417.0625-177.003907.007812c-4.140624 0-7.5 3.359376-7.5 7.5 0 4.144532 3.359376 7.5 7.5 7.5l177.003907-.007812c4.144531 0 7.5-3.359375 7.5-7.5.003906-4.140625-3.355469-7.5-7.5-7.5zm0 0"></path><path d="m159.285156 449.382812-117.714844.007813c-4.140624 0-7.5 3.359375-7.5 7.503906 0 4.140625 3.359376 7.496094 7.5 7.496094l117.714844-.007813c4.140625 0 7.5-3.355468 7.5-7.5 0-4.140624-3.359375-7.5-7.5-7.5zm0 0"></path></g><path d="m281.992188 475.050781c-9.101563 0-16.480469-7.378906-16.480469-16.480469v-24.726562h32.964843v24.726562c0 9.101563-7.378906 16.480469-16.484374 16.480469zm0 0" fill="#5793c9"></path><path d="m303.96875 433.84375h-43.9375c-4.9375 0-8.941406-3.980469-8.941406-8.886719v-319.882812c0-4.902344 3.996094-8.878907 8.929687-8.878907h43.949219c4.929688 0 8.929688 3.976563 8.929688 8.878907v319.890625c0 4.90625-3.996094 8.878906-8.929688 8.878906zm0 0" fill="#ffd659"></path><path d="m312.898438 105.074219c0-4.902344-4-8.878907-8.929688-8.878907h-43.949219s0 0-.003906 0h13.046875c4.929688 0 8.929688 3.972657 8.929688 8.878907v319.890625c0 4.902344-3.996094 8.878906-8.929688 8.878906h30.90625c4.929688 0 8.929688-3.976562 8.929688-8.878906zm0 0" fill="#ffbd54"></path><path d="m251.089844 336.503906h61.808594v60.332032h-61.808594zm0 0" fill="#4fc6f5"></path><path d="m281.992188 336.503906h30.90625v60.332032h-30.90625zm0 0" fill="#3bb3e3"></path><path d="m300.796875 96.320312h-37.605469v-22.40625c0-10.382812 8.417969-18.800781 18.800782-18.800781 10.386718 0 18.804687 8.417969 18.804687 18.800781zm0 0" fill="#ff4b26"></path><path d="m331.175781 114.097656h-80.085937c-4.144532 0-7.5 3.355469-7.5 7.5 0 4.144532 3.355468 7.5 7.5 7.5h72.585937v66.53125c0 4.140625 3.355469 7.5 7.5 7.5 4.140625 0 7.5-3.359375 7.5-7.5v-74.03125c0-4.144531-3.359375-7.5-7.5-7.5zm0 0" fill="#50536e"></path></svg>